<svg width="36" height="36" viewBox="0 0 36 36" fill="none" xmlns="http://www.w3.org/2000/svg">
<g clip-path="url(#clip0_96_3680)">
<path d="M3.97132 6.7899C3.9034 4.81819 5.42306 3 7.47717 3H28.5254C30.5795 3 32.0992 4.81819 32.0313 6.7899C31.966 8.68393 32.0508 11.1374 32.6616 13.1379C33.2743 15.1446 34.3076 16.413 36 16.576V18.424C34.3076 18.587 33.2743 19.8554 32.6616 21.8621C32.0508 23.8626 31.966 26.3161 32.0313 28.2102C32.0992 30.1818 30.5795 32 28.5254 32H7.47717C5.42306 32 3.9034 30.1818 3.97139 28.2102C4.03657 26.3161 3.95184 23.8626 3.34097 21.8621C2.72827 19.8554 1.69242 18.587 0 18.424V16.576C1.69235 16.413 2.72827 15.1446 3.34097 13.1379C3.95184 11.1374 4.03657 8.68393 3.97132 6.7899Z" fill="url(#paint0_linear_96_3680)"/>
<g filter="url(#filter0_d_96_3680)">
<path d="M18.7807 25.2089C22.1063 25.2089 24.1102 23.5629 24.1102 20.8479C24.1102 18.7957 22.6804 17.3099 20.5572 17.0747V16.9892C22.1171 16.7327 23.3412 15.2683 23.3412 13.633C23.3412 11.3028 21.5213 9.78491 18.7482 9.78491H12.5087V25.2089H18.7807ZM14.9352 11.741H18.1633C19.9181 11.741 20.9147 12.532 20.9147 13.9643C20.9147 15.4928 19.7556 16.3479 17.6541 16.3479H14.9352V11.741ZM14.9352 23.2529V18.1757H18.1415C20.438 18.1757 21.6296 19.0308 21.6296 20.6983C21.6296 22.3657 20.4706 23.2529 18.2824 23.2529H14.9352Z" fill="url(#paint1_linear_96_3680)"/>
<path d="M18.7807 25.2089C22.1063 25.2089 24.1102 23.5629 24.1102 20.8479C24.1102 18.7957 22.6804 17.3099 20.5572 17.0747V16.9892C22.1171 16.7327 23.3412 15.2683 23.3412 13.633C23.3412 11.3028 21.5213 9.78491 18.7482 9.78491H12.5087V25.2089H18.7807ZM14.9352 11.741H18.1633C19.9181 11.741 20.9147 12.532 20.9147 13.9643C20.9147 15.4928 19.7556 16.3479 17.6541 16.3479H14.9352V11.741ZM14.9352 23.2529V18.1757H18.1415C20.438 18.1757 21.6296 19.0308 21.6296 20.6983C21.6296 22.3657 20.4706 23.2529 18.2824 23.2529H14.9352Z" stroke="white"/>
</g>
</g>
<defs>
<filter id="filter0_d_96_3680" x="-3.99133" y="-2.71509" width="44.6016" height="48.4241" filterUnits="userSpaceOnUse" color-interpolation-filters="sRGB">
<feFlood flood-opacity="0" result="BackgroundImageFix"/>
<feColorMatrix in="SourceAlpha" type="matrix" values="0 0 0 0 0 0 0 0 0 0 0 0 0 0 0 0 0 0 127 0" result="hardAlpha"/>
<feOffset dy="4"/>
<feGaussianBlur stdDeviation="8"/>
<feColorMatrix type="matrix" values="0 0 0 0 0 0 0 0 0 0 0 0 0 0 0 0 0 0 0.15 0"/>
<feBlend mode="normal" in2="BackgroundImageFix" result="effect1_dropShadow_96_3680"/>
<feBlend mode="normal" in="SourceGraphic" in2="effect1_dropShadow_96_3680" result="shape"/>
</filter>
<linearGradient id="paint0_linear_96_3680" x1="5.3493" y1="3.76751" x2="37.07" y2="28.6761" gradientUnits="userSpaceOnUse">
<stop stop-color="#9013FE"/>
<stop offset="1" stop-color="#6610F2"/>
</linearGradient>
<linearGradient id="paint1_linear_96_3680" x1="13.606" y1="10.8001" x2="20.7512" y2="22.7539" gradientUnits="userSpaceOnUse">
<stop stop-color="white"/>
<stop offset="1" stop-color="#F1E5FC"/>
</linearGradient>
<clipPath id="clip0_96_3680">
<rect width="36" height="36" fill="white"/>
</clipPath>
</defs>
</svg>
