<svg width="1440" height="1024" viewBox="0 0 1440 1024" fill="none" xmlns="http://www.w3.org/2000/svg">
<rect width="1465" height="1098.75" fill="#020617"/>
<mask id="mask0_31_205" style="mask-type:alpha" maskUnits="userSpaceOnUse" x="0" y="0" width="1465" height="1099">
<rect width="1465" height="1098.75" fill="#020617"/>
</mask>
<g mask="url(#mask0_31_205)">
<path d="M1465 817.653C1465 846.983 1441.43 870.759 1412.35 870.759C1383.27 870.759 1359.7 846.983 1359.7 817.653" stroke="#94A3B8" stroke-width="13" stroke-linecap="round" stroke-linejoin="round"/>
<path d="M1465 44.8656C1428.59 44.8656 1399.07 15.1449 1399.07 -21.5172C1399.07 -58.1794 1428.59 -87.9 1465 -87.9" stroke="#475569" stroke-width="13" stroke-linecap="round" stroke-linejoin="round"/>
<path d="M514.581 -33.9641C514.581 -3.57574 539.178 21.0594 569.519 21.0594C599.86 21.0594 624.456 -3.57574 624.456 -33.9641V-96.1406" stroke="#94A3B8" stroke-width="13" stroke-linecap="round" stroke-linejoin="round"/>
<path d="M125.656 1195.81C57.2696 1195.81 1.83125 1140.67 1.83125 1072.65C1.83125 1004.64 57.2696 949.503 125.656 949.503H238.978" stroke="#1E293B" stroke-width="13" stroke-linecap="round" stroke-linejoin="round"/>
<path d="M1465 325.962V171.845C1465 141.665 1440.4 117.2 1410.06 117.2C1379.73 117.2 1355.12 141.665 1355.12 171.845V195.7" stroke="#64748B" stroke-width="13" stroke-linecap="round" stroke-linejoin="round"/>
<path d="M616.216 793.513C619.805 793.513 622.716 790.603 622.716 787.013C622.716 783.423 619.805 780.513 616.216 780.513V793.513ZM519.729 942.687C523.319 942.687 526.229 939.776 526.229 936.187C526.229 932.597 523.319 929.687 519.729 929.687V942.687ZM335.888 1202.31C339.478 1202.31 342.388 1199.4 342.388 1195.81C342.388 1192.22 339.478 1189.31 335.888 1189.31V1202.31ZM526.717 1013.64C526.717 1010.05 523.807 1007.14 520.217 1007.14C516.627 1007.14 513.717 1010.05 513.717 1013.64H526.717ZM363.375 441.331C363.375 437.741 360.465 434.831 356.875 434.831C353.286 434.831 350.375 437.741 350.375 441.331H363.375ZM609.716 708.123C609.716 711.713 612.626 714.623 616.216 714.623C619.805 714.623 622.716 711.713 622.716 708.123H609.716ZM616.216 780.513H451.919V793.513H616.216V780.513ZM451.919 780.513C406.949 780.513 370.435 816.785 370.435 861.6H383.435C383.435 824.029 414.064 793.513 451.919 793.513V780.513ZM370.435 861.6C370.435 906.415 406.949 942.687 451.919 942.687V929.687C414.064 929.687 383.435 899.17 383.435 861.6H370.435ZM451.919 942.687H519.729V929.687H451.919V942.687ZM335.888 1189.31H326.094V1202.31H335.888V1189.31ZM326.094 1189.31C300.794 1189.31 280.272 1168.77 280.272 1143.43H267.272C267.272 1175.93 293.601 1202.31 326.094 1202.31V1189.31ZM280.272 1143.43C280.272 1118.08 300.795 1097.54 326.094 1097.54V1084.54C293.6 1084.54 267.272 1110.91 267.272 1143.43H280.272ZM326.094 1097.54H442.909V1084.54H326.094V1097.54ZM442.909 1097.54C489.202 1097.54 526.717 1059.97 526.717 1013.64H513.717C513.717 1052.81 482.008 1084.54 442.909 1084.54V1097.54ZM350.375 441.331V500.193H363.375V441.331H350.375ZM350.375 500.193C350.375 575.473 411.334 636.511 486.545 636.511V623.511C418.527 623.511 363.375 568.307 363.375 500.193H350.375ZM486.545 636.511H538.192V623.511H486.545V636.511ZM538.192 636.511C577.686 636.511 609.716 668.566 609.716 708.123H622.716C622.716 661.4 584.88 623.511 538.192 623.511V636.511Z" fill="#64748B"/>
<path fill-rule="evenodd" clip-rule="evenodd" d="M538.388 299.409C558.615 299.409 575.013 283.012 575.013 262.784C575.013 242.557 558.615 226.159 538.388 226.159C518.16 226.159 501.763 242.557 501.763 262.784C501.763 283.012 518.16 299.409 538.388 299.409Z" stroke="#94A3B8" stroke-width="13" stroke-linecap="round" stroke-linejoin="round"/>
<path fill-rule="evenodd" clip-rule="evenodd" d="M639.106 1050.22C668.436 1050.22 692.213 1026.65 692.213 997.573C692.213 968.497 668.436 944.925 639.106 944.925C609.776 944.925 586 968.497 586 997.573C586 1026.65 609.776 1050.22 639.106 1050.22Z" stroke="#475569" stroke-width="13" stroke-linecap="round" stroke-linejoin="round"/>
<path fill-rule="evenodd" clip-rule="evenodd" d="M168.475 195.944C200.333 195.944 226.159 170.118 226.159 138.259C226.159 106.401 200.333 80.575 168.475 80.575C136.617 80.575 110.791 106.401 110.791 138.259C110.791 170.118 136.617 195.944 168.475 195.944Z" stroke="#94A3B8" stroke-width="13" stroke-linecap="round" stroke-linejoin="round"/>
<path d="M168.933 263.7C239.981 263.7 297.578 206.924 297.578 136.886C297.578 66.8483 239.981 10.0718 168.933 10.0718C97.8845 10.0718 40.2875 66.8483 40.2875 136.886" stroke="#1E293B" stroke-width="13" stroke-linecap="round" stroke-linejoin="round"/>
<path d="M1200.58 1024.09C1181.03 1097.17 1223.31 1172.01 1295.01 1191.26C1366.71 1210.5 1440.68 1166.86 1460.23 1093.78C1479.77 1020.7 1437.49 945.862 1365.8 926.612" stroke="#94A3B8" stroke-width="13" stroke-linecap="round" stroke-linejoin="round"/>
<path d="M441.176 1020.1C444.766 1020.1 447.676 1017.19 447.676 1013.6C447.676 1010.01 444.766 1007.1 441.176 1007.1V1020.1ZM326.78 781.803C328.538 778.673 327.425 774.71 324.295 772.953C321.165 771.195 317.203 772.308 315.445 775.438L326.78 781.803ZM537.472 710.616C541.062 710.616 543.972 707.705 543.972 704.116C543.972 700.526 541.062 697.616 537.472 697.616V710.616ZM355.258 727.644C352.426 729.85 351.919 733.934 354.125 736.766C356.331 739.598 360.415 740.105 363.247 737.899L355.258 727.644ZM441.176 1007.1C367.521 1007.1 306.825 941.507 306.825 859.325H293.825C293.825 947.547 359.253 1020.1 441.176 1020.1V1007.1ZM306.825 859.325C306.825 830.859 314.14 804.313 326.78 781.803L315.445 775.438C301.717 799.885 293.825 828.621 293.825 859.325H306.825ZM537.472 697.616H441.517V710.616H537.472V697.616ZM441.517 697.616C409.275 697.616 379.474 708.779 355.258 727.644L363.247 737.899C385.328 720.697 412.352 710.616 441.517 710.616V697.616Z" fill="#64748B"/>
<path d="M300.783 282.012C271.706 282.012 248.134 305.583 248.134 334.661C248.134 363.738 271.706 387.309 300.783 387.309C329.86 387.309 353.431 363.738 353.431 334.661V282.012" stroke="#94A3B8" stroke-width="13" stroke-linecap="round" stroke-linejoin="round"/>
<path d="M316.806 -26.0953C316.806 12.5894 347.962 43.95 386.394 43.95C424.826 43.95 455.981 12.5894 455.981 -26.0953C455.981 -64.7802 424.826 -96.1406 386.394 -96.1406H316.806" stroke="#475569" stroke-width="13" stroke-linecap="round" stroke-linejoin="round"/>
<path d="M65.4672 696.408C31.8391 696.408 4.57812 669.438 4.57812 636.168C4.57812 602.898 31.8391 575.928 65.4672 575.928C99.0955 575.928 126.356 602.898 126.356 636.168V820.4" stroke="#94A3B8" stroke-width="13" stroke-linecap="round" stroke-linejoin="round"/>
<path d="M1338.63 699.537C1338.63 730.384 1363.24 755.391 1393.58 755.391C1423.93 755.391 1448.52 730.384 1448.52 699.537C1448.52 668.691 1423.93 643.684 1393.58 643.684H1209.54" stroke="#94A3B8" stroke-width="13" stroke-linecap="round" stroke-linejoin="round"/>
<path d="M884.494 30.9397C852.13 30.9397 825.894 56.8085 825.894 88.7198C825.894 120.631 852.13 146.5 884.494 146.5C916.858 146.5 943.094 120.631 943.094 88.7198V-97.0563" stroke="#334155" stroke-width="13" stroke-linecap="round" stroke-linejoin="round"/>
<path d="M997.573 418.054C1026.65 418.054 1050.22 441.507 1050.22 470.438C1050.22 499.369 1026.65 522.822 997.573 522.822C968.496 522.822 944.925 499.369 944.925 470.438V274.688" stroke="#64748B" stroke-width="13" stroke-linecap="round" stroke-linejoin="round"/>
<path d="M57.2266 423.667C28.1496 423.667 4.57812 446.888 4.57812 475.533C4.57812 504.179 28.1496 527.4 57.2266 527.4C86.3035 527.4 109.875 504.179 109.875 475.533V263.7" stroke="#64748B" stroke-width="13" stroke-linecap="round" stroke-linejoin="round"/>
<path d="M630.595 263.7C630.595 211.615 589.046 169.391 537.794 169.391C486.542 169.391 444.994 211.615 444.994 263.7C444.994 315.785 486.542 358.009 537.794 358.009H781.028" stroke="#1E293B" stroke-width="13" stroke-linecap="round" stroke-linejoin="round"/>
<path d="M1372.2 568.603C1423.46 568.603 1465 526.379 1465 474.294C1465 422.209 1423.46 379.984 1372.2 379.984H1128.97" stroke="#94A3B8" stroke-width="13" stroke-linecap="round" stroke-linejoin="round"/>
<path fill-rule="evenodd" clip-rule="evenodd" d="M1013.6 63.6359C1013.6 14.837 1052.73 -24.7219 1101 -24.7219H1190.81C1239.08 -24.7219 1278.21 14.837 1278.21 63.6359V63.6359C1278.21 112.435 1239.08 151.994 1190.81 151.994H1101C1052.73 151.994 1013.6 112.435 1013.6 63.6359V63.6359Z" stroke="#64748B" stroke-width="13" stroke-linecap="round" stroke-linejoin="round"/>
<path fill-rule="evenodd" clip-rule="evenodd" d="M244.014 700.453C213.926 700.453 189.534 676.103 189.534 646.065V491.141C189.534 461.104 213.926 436.753 244.014 436.753V436.753C274.102 436.753 298.494 461.104 298.494 491.141V646.065C298.494 676.103 274.102 700.453 244.014 700.453V700.453Z" stroke="#1E293B" stroke-width="13" stroke-linecap="round" stroke-linejoin="round"/>
<path d="M758.138 631.323V549.527C758.138 526.181 777.2 507.256 800.714 507.256V507.256C824.229 507.256 843.291 526.181 843.291 549.527V713.12C843.291 736.465 824.229 755.391 800.714 755.391V755.391V755.391C777.2 755.391 758.138 736.465 758.138 713.12V693.357" stroke="#475569" stroke-width="13" stroke-linecap="round" stroke-linejoin="round"/>
<path d="M836.881 194.049V201.18C836.881 241.777 803.881 274.687 763.173 274.687V274.687C722.466 274.687 689.466 241.777 689.466 201.18V-22.6333C689.466 -63.2303 722.466 -96.1406 763.173 -96.1406V-96.1406C803.881 -96.1406 836.881 -63.2303 836.881 -22.6333V-20.439" stroke="#1E293B" stroke-width="13" stroke-linecap="round" stroke-linejoin="round"/>
<path d="M65.6961 774.619H61.2912C29.9695 774.619 4.57812 800.035 4.57812 831.387V831.387C4.57812 862.74 29.9694 888.156 61.2912 888.156H192.337C223.659 888.156 249.05 862.74 249.05 831.387V831.387C249.05 800.035 223.659 774.619 192.337 774.619H187.932" stroke="#1E293B" stroke-width="13" stroke-linecap="round" stroke-linejoin="round"/>
<path d="M687.634 507.256V719.349C687.634 782.743 739.492 834.134 803.461 834.134C867.43 834.134 919.288 782.743 919.288 719.349V669.239" stroke="#94A3B8" stroke-width="13" stroke-linecap="round" stroke-linejoin="round"/>
<path d="M455.066 866.181H645.334C717.747 866.181 776.45 925.213 776.45 998.031C776.45 1070.85 717.747 1129.88 645.334 1129.88H588.095" stroke="#94A3B8" stroke-width="13" stroke-linecap="round" stroke-linejoin="round"/>
<path d="M536.556 544.797H491.52C461.273 544.797 436.753 520.2 436.753 489.859C436.753 459.518 461.273 434.922 491.52 434.922H581.593C611.84 434.922 636.359 459.518 636.359 489.859V494.74C636.359 522.386 614.018 544.797 586.458 544.797" stroke="#334155" stroke-width="13" stroke-linecap="round" stroke-linejoin="round"/>
<path d="M997.573 335.119H1049.01C1083.56 335.119 1111.57 308.677 1111.57 276.061C1111.57 243.445 1083.56 217.003 1049.01 217.003H946.132C911.585 217.003 883.578 243.445 883.578 276.061" stroke="#94A3B8" stroke-width="13" stroke-linecap="round" stroke-linejoin="round"/>
<path d="M618.047 88.8156H494.729C416.692 88.8156 353.431 152.356 353.431 230.737" stroke="#94A3B8" stroke-width="13" stroke-linecap="round" stroke-linejoin="round"/>
<path d="M1327.2 1007.96C1356.28 1007.96 1379.85 1031.36 1379.85 1060.22C1379.85 1089.08 1356.28 1112.48 1327.2 1112.48C1298.12 1112.48 1274.55 1089.08 1274.55 1060.22V719.681" stroke="#475569" stroke-width="13" stroke-linecap="round" stroke-linejoin="round"/>
<path d="M933.022 1041.98C933.022 988.38 975.916 944.925 1028.83 944.925H1197.64" stroke="#94A3B8" stroke-width="13" stroke-linecap="round" stroke-linejoin="round"/>
<path d="M683.972 434.922H774.045C834.539 434.922 883.578 385.729 883.578 325.047" stroke="#334155" stroke-width="13" stroke-linecap="round" stroke-linejoin="round"/>
<path d="M1209.54 721.512V770.732C1209.54 820.413 1169.25 860.687 1119.55 860.687H1049.31" stroke="#334155" stroke-width="13" stroke-linecap="round" stroke-linejoin="round"/>
<path d="M1379.85 476.125H1302.93C1247.3 476.125 1202.22 521.628 1202.22 577.759" stroke="#64748B" stroke-width="13" stroke-linecap="round" stroke-linejoin="round"/>
<path d="M199.606 1195.81V1112.38C199.606 1064.34 237.124 1024.1 287.506 1013.6" stroke="#94A3B8" stroke-width="13" stroke-linecap="round" stroke-linejoin="round"/>
<path d="M40.7453 201.438C40.7453 209.965 40.7453 317.308 40.7453 369.913" stroke="#94A3B8" stroke-width="13" stroke-linecap="round" stroke-linejoin="round"/>
<path d="M996.658 588.747C996.658 595.791 996.658 684.465 996.658 727.922" stroke="#94A3B8" stroke-width="13" stroke-linecap="round" stroke-linejoin="round"/>
<path d="M855.652 966.9C855.652 969.773 855.652 1005.94 855.652 1023.67" stroke="#94A3B8" stroke-width="13" stroke-linecap="round" stroke-linejoin="round"/>
<path d="M1135.47 440.416C1135.47 436.826 1132.56 433.916 1128.97 433.916C1125.38 433.916 1122.47 436.826 1122.47 440.416H1135.47ZM1024.2 774.624C1020.61 774.624 1017.7 777.535 1017.7 781.124C1017.7 784.714 1020.61 787.624 1024.2 787.624V774.624ZM873.506 896.306C869.916 896.306 867.006 899.216 867.006 902.806C867.006 906.396 869.916 909.306 873.506 909.306V896.306ZM996.255 811.187C996.255 807.597 993.344 804.687 989.755 804.687C986.165 804.687 983.255 807.597 983.255 811.187H996.255ZM1122.47 440.416V570.737H1135.47V440.416H1122.47ZM1122.47 570.737C1122.47 587.602 1108.67 601.352 1091.55 601.352V614.352C1115.75 614.352 1135.47 594.883 1135.47 570.737H1122.47ZM1091.55 601.352C1067.34 601.352 1047.63 620.839 1047.63 644.982H1060.63C1060.63 628.112 1074.43 614.352 1091.55 614.352V601.352ZM1047.63 644.982V652.683H1060.63V644.982H1047.63ZM1047.63 652.683C1047.63 676.825 1067.34 696.313 1091.55 696.313V683.313C1074.43 683.313 1060.63 669.552 1060.63 652.683H1047.63ZM1091.55 696.313C1108.67 696.313 1122.47 710.073 1122.47 726.943H1135.47C1135.47 702.799 1115.76 683.313 1091.55 683.313V696.313ZM1122.47 726.943V735.469H1135.47V726.943H1122.47ZM1122.47 735.469C1122.47 757.047 1104.82 774.624 1082.96 774.624V787.624C1111.91 787.624 1135.47 764.321 1135.47 735.469H1122.47ZM1082.96 774.624H1059.12V787.624H1082.96V774.624ZM1059.12 774.624H1024.2V787.624H1059.12V774.624ZM873.506 909.306H898.023V896.306H873.506V909.306ZM898.023 909.306C952.268 909.306 996.255 865.384 996.255 811.187H983.255C983.255 858.19 945.103 896.306 898.023 896.306V909.306Z" fill="#1E293B"/>
<path d="M1356.04 259.965V278.536C1356.04 304.729 1334.74 325.963 1308.48 325.963V325.963C1282.21 325.963 1260.91 304.729 1260.91 278.536V263.154C1260.91 237.159 1239.77 216.088 1213.71 216.088V216.088C1187.64 216.088 1166.51 237.159 1166.51 263.154V282.085" stroke="#475569" stroke-width="13" stroke-linecap="round" stroke-linejoin="round"/>
<path fill-rule="evenodd" clip-rule="evenodd" d="M997.116 1080.41C997.116 1043.51 1027.04 1013.6 1063.96 1013.6V1013.6C1100.87 1013.6 1130.8 1043.51 1130.8 1080.41V1129C1130.8 1165.89 1100.87 1195.81 1063.96 1195.81V1195.81C1027.04 1195.81 997.116 1165.89 997.116 1129V1080.41Z" stroke="#334155" stroke-width="13" stroke-linecap="round" stroke-linejoin="round"/>
</g>
</svg>
