<svg width="489" height="403" viewBox="0 0 489 403" fill="none" xmlns="http://www.w3.org/2000/svg">
<path d="M489 207.804C489 362.483 387.809 402.371 243.743 402.371C101.782 402.371 0 353.046 0 207.804C0 83.4233 109.467 0 244.5 0C379.533 0 489 83.4233 489 207.804Z" fill="#274D76"/>
<path d="M403.78 330.779L257.051 19.4615C251.39 8.55287 237.491 8.55287 231.83 19.4615L91.9405 330.779C73.5203 366.291 184.061 392.267 244.268 392.267C301.629 392.267 423.004 367.848 403.78 330.779Z" fill="#93B4F6"/>
<path d="M148.809 330.827C149.523 327.723 157.657 331.021 166.118 329.322C172.616 328.022 171.533 321.356 195.429 322.378C218.621 323.367 217.439 315.585 233.306 315.523C244.178 315.481 244.869 318.404 256.342 316.995C264.187 316.034 267.625 311.805 274.894 311.805C285.194 311.805 290.08 316.777 296.455 317.032C303.7 317.321 305.729 313.224 312.837 313.584C321.363 314.014 322.692 319.336 336.866 318.054C340.153 317.756 341.141 321.153 339.665 324.171C338.947 325.633 334.955 332.643 321.851 333.135C313.357 333.452 311.423 332.478 302.054 335.472C292.681 338.471 289.947 344.564 277.226 344.678C255.046 344.881 253.433 340.889 241.681 343.566C233.622 345.406 226.226 350.917 216.451 350.695C206.675 350.473 195.595 344.758 186.056 344.999C162.42 345.61 147.05 338.467 148.809 330.827Z" fill="#274D76"/>
<path d="M128.54 303.607C126.644 303.607 124.742 303.238 122.945 302.486L117.37 300.153L117.734 299.278L123.31 301.61C127.381 303.313 132.04 302.926 135.771 300.574L137.663 299.382C142.217 296.516 147.944 296.397 152.612 299.075L158.064 302.202L157.596 303.02L152.144 299.893C147.778 297.391 142.425 297.5 138.169 300.182L136.277 301.374C133.931 302.855 131.24 303.607 128.54 303.607Z" fill="white"/>
<path d="M336.01 306.705C333.896 306.705 331.773 306.237 329.848 305.296L322.712 301.804C319.146 300.059 314.719 300.068 311.163 301.833L310.742 300.986C314.615 299.065 319.24 299.056 323.128 300.953L330.264 304.444C334.1 306.322 338.767 306.18 342.447 304.075L347.053 301.445C350.865 299.269 355.736 299.051 359.774 300.887L366.958 304.151L366.566 305.012L359.382 301.748C355.617 300.04 351.073 300.239 347.521 302.268L342.915 304.898C340.815 306.1 338.413 306.705 336.01 306.705Z" fill="white"/>
<path d="M291.641 305.949L280.655 301.19C277.382 299.775 273.623 299.756 270.331 301.138L259.572 305.669L259.203 304.799L269.962 300.267C273.486 298.782 277.52 298.801 281.029 300.319L292.015 305.078L291.641 305.949Z" fill="white"/>
<path d="M216.792 310.925C214.583 310.925 212.375 310.409 210.365 309.383L207.201 307.77C203.796 306.034 199.809 305.854 196.267 307.287L188.752 310.319L188.397 309.44L195.912 306.407C199.71 304.875 203.98 305.064 207.631 306.928L210.795 308.541C214.55 310.457 219.033 310.457 222.793 308.541L226.326 306.738L226.756 307.58L223.223 309.383C221.209 310.414 219 310.925 216.792 310.925Z" fill="white"/>
<path d="M239.728 348.864C237.519 348.864 235.311 348.349 233.301 347.322L230.137 345.709C226.732 343.973 222.745 343.793 219.203 345.226L211.688 348.259L211.334 347.379L218.848 344.347C222.646 342.814 226.916 343.003 230.567 344.867L233.731 346.48C237.486 348.396 241.974 348.396 245.729 346.48L249.262 344.678L249.692 345.52L246.16 347.322C244.145 348.353 241.936 348.864 239.728 348.864Z" fill="white"/>
<path d="M136.145 319.61C133.861 319.61 131.581 319.17 129.434 318.285L124.147 316.105L124.506 315.229L129.793 317.41C134.04 319.165 138.873 319.075 143.054 317.169L147.041 315.352C151.359 313.38 156.372 313.247 160.784 314.988L169.68 318.493L169.334 319.373L160.439 315.868C156.258 314.222 151.519 314.35 147.433 316.213L143.447 318.03C141.139 319.08 138.642 319.61 136.145 319.61Z" fill="white"/>
<path d="M259.856 334.776L259.345 333.977L268.997 327.818C272.96 325.287 277.822 325.017 281.998 327.089L289.636 330.883C293.419 332.761 297.685 332.595 301.34 330.429L307.37 326.857C310.69 324.889 314.506 324.449 318.12 325.613L327.446 328.622L327.157 329.521L317.831 326.512C314.478 325.429 310.936 325.84 307.852 327.671L301.823 331.242C297.945 333.542 293.23 333.721 289.215 331.73L281.577 327.936C277.704 326.01 273.187 326.266 269.508 328.617L259.856 334.776Z" fill="white"/>
<path d="M222.845 328.319L222.372 327.501L230.993 322.515C233.694 320.954 236.966 320.873 239.742 322.297L243.261 324.109C245.186 325.098 247.38 325.287 249.442 324.643L255.032 322.903L255.316 323.806L249.726 325.547C247.423 326.266 244.978 326.053 242.831 324.951L239.307 323.139C236.82 321.857 233.888 321.933 231.466 323.333L222.845 328.319Z" fill="white"/>
<path d="M170.71 337.913L170.284 337.066L177.955 333.201C180.022 332.16 182.434 332.061 184.581 332.931L191.06 335.557C193.216 336.432 195.671 336.191 197.614 334.909L202.164 331.91C204.226 330.547 206.855 330.216 209.187 331.02L218.338 334.166L218.03 335.06L208.879 331.914C206.817 331.205 204.505 331.498 202.684 332.7L198.134 335.699C195.931 337.151 193.15 337.425 190.705 336.437L184.226 333.811C182.334 333.045 180.206 333.13 178.381 334.048L170.71 337.913Z" fill="white"/>
<path d="M114.986 344.28C112.782 344.28 110.583 343.764 108.545 342.733L99.0154 337.917L99.441 337.07L108.97 341.886C112.654 343.75 116.911 343.811 120.652 342.061L125.981 339.563C129.486 337.922 133.562 337.775 137.175 339.166L145.858 342.506L145.518 343.39L136.835 340.051C133.463 338.754 129.656 338.887 126.383 340.424L121.053 342.922C119.114 343.826 117.048 344.28 114.986 344.28Z" fill="white"/>
<path d="M354.795 322.061C352.511 322.061 350.231 321.621 348.089 320.736L342.802 318.555L343.161 317.68L348.448 319.861C352.695 321.616 357.528 321.526 361.709 319.62L365.696 317.803C370.013 315.83 375.026 315.698 379.439 317.439L388.334 320.944L387.989 321.824L379.093 318.319C374.913 316.672 370.174 316.795 366.088 318.664L362.101 320.481C359.794 321.535 357.297 322.061 354.795 322.061Z" fill="white"/>
<path d="M363.936 344.28C361.732 344.28 359.533 343.764 357.495 342.733L347.965 337.917L348.391 337.07L357.92 341.886C361.604 343.75 365.861 343.811 369.601 342.061L374.931 339.563C378.436 337.922 382.517 337.775 386.125 339.166L394.808 342.506L394.468 343.39L385.785 340.051C382.413 338.754 378.606 338.887 375.333 340.424L370.003 342.922C368.064 343.826 365.998 344.28 363.936 344.28Z" fill="white"/>
<path d="M185.413 359.929C183.015 359.929 180.613 359.427 178.371 358.42L171.987 355.539C167.801 353.651 162.997 353.632 158.797 355.482L152.819 358.117L152.436 357.251L158.414 354.616C162.859 352.658 167.948 352.677 172.375 354.673L178.759 357.554C183.484 359.687 188.993 359.418 193.486 356.83L193.959 357.648C191.329 359.162 188.378 359.929 185.413 359.929Z" fill="white"/>
<path d="M331.409 359.531C329.361 359.531 327.308 359.087 325.379 358.193L318.985 355.222C314.767 353.263 309.754 353.661 305.899 356.258L304.826 356.982C300.697 359.763 295.325 360.189 290.808 358.088L283.639 354.758C279.912 353.027 275.67 353.093 272 354.943L264.434 358.755L264.008 357.909L271.575 354.096C275.505 352.119 280.045 352.048 284.036 353.902L291.206 357.232C295.424 359.191 300.437 358.798 304.296 356.201L305.37 355.477C309.498 352.696 314.866 352.27 319.382 354.366L325.776 357.336C329.928 359.266 334.714 358.949 338.578 356.485L340.356 355.354L340.862 356.154L339.084 357.284C336.743 358.774 334.081 359.531 331.409 359.531Z" fill="white"/>
<path d="M235.841 375.667C233.637 375.667 231.429 375.279 229.329 374.494L215.538 369.343C211.481 367.824 207.016 367.852 202.978 369.414L194.375 372.739L194.035 371.854L202.637 368.529C206.893 366.883 211.594 366.859 215.869 368.453L229.66 373.605C234.28 375.331 239.454 375.043 243.852 372.81L249.83 369.773C254.606 367.351 260.196 367.1 265.167 369.082L274.327 372.739L273.977 373.619L264.817 369.962C260.097 368.08 254.791 368.316 250.26 370.615L244.282 373.652C241.644 374.991 238.745 375.667 235.841 375.667Z" fill="white"/>
<path d="M75.9932 201.9H75.0474V62.2303C75.0474 61.6201 75.3973 61.0903 75.9601 60.849C76.5229 60.6077 77.1471 60.726 77.5869 61.147L163.767 160.952L163.053 161.572L76.9012 61.7998C76.6837 61.5964 76.4094 61.6863 76.329 61.7194C76.2486 61.7525 75.9932 61.8897 75.9932 62.2303V201.9Z" fill="white"/>
<path d="M356.095 156.586L362.588 142.314L290.846 176.752L260.659 214.72L275.712 232.502L307.096 218.755L356.095 156.586Z" fill="#93B4F6"/>
<path d="M242.792 107.251L181.228 194.137L204.859 228.367L270.321 208.541L322.654 201.568L248.969 107.132C247.394 105.084 244.287 105.141 242.792 107.251Z" fill="white"/>
<path d="M245.039 109.002L237.448 162.67L259.742 158.37L247.385 108.931C247.072 107.672 245.275 107.729 245.039 109.002Z" fill="#93B4F6"/>
<path d="M137.606 151.415L122.297 131.783C118.481 130.147 114.432 133.983 116.896 139.3C120.202 146.434 129.154 168.265 129.154 168.265L165.579 255.52L174.98 234.876L137.606 151.415Z" fill="#93B4F6"/>
<path d="M80.8693 57.4994C91.0087 68.5831 166.019 149.949 187.21 173.275C186.662 176.336 182.292 176.719 182.292 176.719L79.9802 58.5543C79.4931 57.9914 80.2119 56.7803 80.8693 57.4994Z" fill="#93B4F6"/>
<path d="M287.829 221.101C285.464 222.927 282.608 223.967 273.092 218.849C232.417 196.98 143.479 145.35 122.292 131.778C121.048 130.984 119.507 132.204 119.994 133.6L168.232 262.625C171.126 268.979 177.785 272.214 184.732 271.509L250.761 265.388C251.679 265.293 252.596 265.175 253.509 265.024L310.099 255.809C312.071 255.487 313.754 254.219 314.601 252.412C322.409 235.803 361.335 152.952 363.349 147.914C365.18 143.33 363.288 140.923 361.155 143.17C358.516 145.961 315.726 193.9 287.829 221.101Z" fill="white"/>
<path d="M311.64 253.382C312.468 253.027 312.733 251.987 312.16 251.291C306.381 244.328 295.892 231.801 286.892 225.481C285.369 224.412 283.468 224.001 281.624 224.356C263.208 227.899 204.935 255.856 184.131 265.994C182.807 266.637 183.346 269.518 184.817 269.381C184.836 269.381 184.855 268.525 184.874 268.525L250.875 262.824C251.792 262.739 252.71 262.626 253.622 262.484L310.179 253.798C310.685 253.718 311.177 253.576 311.64 253.382Z" fill="#93B4F6"/>
<path d="M140.573 121.405L136.466 125.281L137.115 125.969L141.222 122.093L140.573 121.405Z" fill="white"/>
<path d="M133.576 130.033C133.065 130.033 132.649 129.863 132.365 129.532C131.647 128.69 132.153 127.119 133.51 125.955C134.872 124.792 136.499 124.541 137.218 125.378C137.596 125.818 137.653 126.457 137.383 127.176C137.147 127.8 136.683 128.429 136.068 128.955C135.458 129.48 134.758 129.839 134.11 129.976C133.926 130.014 133.746 130.033 133.576 130.033ZM136.007 125.823C135.52 125.823 134.801 126.102 134.129 126.674C133.15 127.512 132.772 128.548 133.089 128.917C133.231 129.082 133.533 129.13 133.926 129.049C134.418 128.95 134.976 128.652 135.463 128.236C135.95 127.819 136.328 127.313 136.503 126.845C136.645 126.471 136.645 126.159 136.503 125.993C136.404 125.88 136.229 125.823 136.007 125.823Z" fill="white"/>
<path d="M109.027 86.2896L105.475 89.4976L106.108 90.1999L109.661 86.9919L109.027 86.2896Z" fill="white"/>
<path d="M102.538 94.1613C102.018 94.1613 101.569 93.991 101.28 93.6363C100.58 92.78 101.12 91.2189 102.505 90.0883C103.13 89.5774 103.834 89.2321 104.487 89.1139C105.243 88.9767 105.858 89.147 106.227 89.5964C106.596 90.0458 106.639 90.6844 106.355 91.3987C106.109 92.0137 105.627 92.6381 105.002 93.1443C104.189 93.8113 103.286 94.1613 102.538 94.1613ZM104.979 90.0127C104.884 90.0127 104.775 90.0221 104.662 90.0458C104.17 90.1357 103.602 90.4195 103.106 90.8216C102.108 91.6352 101.706 92.6618 102.013 93.0402C102.321 93.4139 103.409 93.2247 104.402 92.411C104.898 92.0089 105.286 91.5075 105.475 91.0439C105.627 90.6702 105.631 90.3627 105.494 90.1972C105.4 90.0742 105.215 90.0127 104.979 90.0127Z" fill="white"/>
<path d="M81.8663 56.855L79.2122 59.5918L79.8911 60.2506L82.5452 57.5137L81.8663 56.855Z" fill="white"/>
<path d="M76.5132 64.4205C76.0545 64.4205 75.6573 64.2786 75.3782 63.9758C74.6216 63.1669 75.0566 61.5774 76.3666 60.3522C77.6766 59.1317 79.2893 58.8053 80.046 59.6143C80.7979 60.4232 80.3675 62.0126 79.0576 63.2379C78.2347 64.0089 77.2888 64.4205 76.5132 64.4205ZM78.9015 60.111C78.4144 60.111 77.6766 60.4232 77.0098 61.0476C76.0687 61.9275 75.7376 62.9777 76.0687 63.3325C76.3997 63.6873 77.4733 63.4271 78.4097 62.5472C79.3508 61.6673 79.6818 60.6171 79.3508 60.2623C79.2562 60.163 79.1001 60.111 78.9015 60.111Z" fill="white"/>
<path d="M78.4951 218.897C79.6727 218.674 80.6895 218.433 81.5313 218.197C79.772 209.355 77.0953 202.562 75.4542 202.874C73.8132 203.187 73.8085 210.491 75.4117 219.36C76.2819 219.266 77.3128 219.119 78.4951 218.897Z" fill="#FFF3A1"/>
<path d="M78.7597 220.292C77.7571 220.481 76.693 220.656 75.6763 220.769C77.4355 229.72 80.1453 236.631 81.8006 236.319C83.4558 236.007 83.4463 228.58 81.8006 219.606C80.8169 219.871 79.7623 220.098 78.7597 220.292Z" fill="#74BAAB"/>
<path d="M81.9097 270.327H80.9639V291.099H81.9097V270.327Z" fill="white"/>
<path d="M81.9097 237.701H80.9639V261.145H81.9097V237.701Z" fill="white"/>
<path d="M81.4368 268.572C79.7059 268.572 79.2141 265.474 79.0959 264.75C78.883 263.473 80.1457 262.408 81.4368 262.408C82.7326 262.408 83.9953 263.477 83.7778 264.75C83.6596 265.469 83.215 268.572 81.4368 268.572Z" fill="#74BAAB"/>
<path d="M81.4462 308.044C78.2587 308.044 75.6624 305.447 75.6624 302.258C75.6624 299.808 76.9156 298.469 78.1215 297.178C79.5214 295.678 80.9732 294.131 80.9732 290.635H81.9191C81.9191 294.505 80.2686 296.27 78.8167 297.826C77.6344 299.094 76.6129 300.186 76.6129 302.263C76.6129 304.931 78.7836 307.103 81.4509 307.103C84.1182 307.103 86.2889 304.931 86.2889 302.263C86.2889 301.293 86.0051 300.362 85.466 299.562L86.2511 299.032C86.8942 299.988 87.2347 301.104 87.2347 302.263C87.23 305.447 84.6336 308.044 81.4462 308.044Z" fill="white"/>
<path d="M83.0632 302.282L82.8125 301.369C85.1913 300.721 85.2339 298.876 85.2339 298.862L86.1797 298.871C86.175 299.756 85.5129 301.615 83.0632 302.282Z" fill="white"/>
<path d="M72.7501 185.892L71.8223 186.076L74.9646 201.97L75.8925 201.787L72.7501 185.892Z" fill="white"/>
<path d="M279.269 201.772C281.87 196.417 287.394 192.254 294.866 192.547C296.427 188.261 303.61 175.399 302.244 165.853C300.995 157.125 293.982 154.045 288.018 152.082C287.285 151.841 286.59 151.614 285.914 151.396C293.428 158.681 289.096 173.35 286.221 182.438C284.083 189.198 280.868 197.656 279.269 201.772Z" fill="#FFF3A1"/>
<path d="M305.005 197.576C308.983 194.553 313.428 194.989 316.819 195.939C309.881 192.827 298.715 192.888 294.866 192.548C286.268 192.207 280.253 197.77 278.295 204.256C275.58 213.248 274.719 215.42 274.719 215.42C281.813 215.136 286.67 214.748 296.256 212.208C301.681 207.179 298.649 202.406 305.005 197.576Z" fill="#F2BDBA"/>
<path d="M286.221 182.443C289.091 173.356 293.423 158.686 285.913 151.401C278.526 149.031 273.981 147.995 265.833 147.503C265.833 147.503 246.978 147.631 242.286 150.587C231.66 157.295 222.717 172.509 213.292 185.078C213.292 185.078 259.094 211.981 273.518 219.138C274.033 218.078 273.925 216.995 274.714 215.424C274.714 215.424 275.58 213.253 278.29 204.26C278.545 203.414 278.871 202.581 279.264 201.777C280.867 197.656 284.083 189.198 286.221 182.443Z" fill="#FFF3A1"/>
<path d="M323.009 209.383C323.255 205.58 321.061 199.653 315.868 195.088C314.951 194.279 313.816 193.602 312.543 193.03C309.153 192.079 304.712 191.644 300.73 194.667C294.374 199.497 296.445 203.404 291.976 209.303C291.148 210.396 290.236 211.886 290.245 212.676C290.278 215.041 293.286 215.33 294.199 214.72C296.488 213.192 298.583 208.409 301.784 208.551C308.755 208.858 306.887 219.062 307.015 220.25C307.166 221.702 310.117 222.714 311.777 220.846C312.633 222.449 316.454 221.257 316.942 216.886C318.762 217.099 320.077 215.751 320.238 212.335C321.075 212.808 322.82 212.288 323.009 209.383Z" fill="#F2BDBA"/>
<path d="M213.296 185.077C213.296 185.077 223.44 191.029 235.66 198.058C241.581 190.314 249.157 180.508 252.217 176.936C258.176 169.978 258.904 160.791 254.629 154.977C252.539 152.139 249.886 149.726 244.75 149.575C243.743 149.868 242.896 150.204 242.291 150.587C231.659 157.295 222.716 172.504 213.296 185.077Z" fill="#FFF3A1"/>
<path d="M255.112 199.828C254.549 199.099 253.995 198.361 253.456 197.614C249.436 191.999 244.788 187.874 237.117 185.589C224.906 181.956 213.296 185.078 213.296 185.078C219.557 188.692 237.396 199.686 236.464 207.609C235.433 216.37 235.887 217.605 238.923 218.234C238.205 222.97 240.825 224.242 242.948 223.84C242.177 228.263 247.058 228.84 248.642 225.86C250.761 226.816 252.742 226.205 253.589 225.231C256.076 222.364 258.266 215.661 258.469 211.063C257.793 204.837 255.121 199.847 255.121 199.847L255.112 199.828Z" fill="#F2BDBA"/>
<path d="M262.65 207.808C259.836 205.447 257.358 202.732 255.112 199.827L255.121 199.846C255.121 199.846 257.798 204.842 258.47 211.062C261.113 212.505 263.601 213.872 266.396 215.363C266.958 212.534 265.081 209.847 262.65 207.808Z" fill="#EC8C92"/>
<path d="M258.02 210.557C257.968 208.778 257.453 206.654 257.443 206.63L258.361 206.403C258.384 206.493 258.905 208.65 258.961 210.528L258.02 210.557Z" fill="black"/>
<path d="M295.211 131.845C290.567 124.938 282.339 127.053 276.408 134.432C274.1 132.938 270.147 136.66 271.887 140.156C272.128 140.639 272.043 141.225 271.674 141.623C271.674 141.623 269.697 148.019 272.734 153.038C275.77 158.052 282.055 155.791 282.055 155.791C285.238 154.428 287.99 152.513 287.99 152.513C295.07 147.224 299.487 138.198 295.211 131.845Z" fill="#F2BDBA"/>
<path d="M250.629 224.356L249.754 224.001C251.854 218.821 251.693 213.665 251.688 213.613L252.634 213.58C252.643 213.797 252.809 218.991 250.629 224.356Z" fill="black"/>
<path d="M243.686 222.482L242.802 222.142C244.216 218.457 244.835 215.576 244.949 212.198L245.895 212.231C245.776 215.718 245.138 218.689 243.686 222.482Z" fill="black"/>
<path d="M239.202 217.179L238.332 216.805C239.552 213.962 239.704 211.02 239.685 209.516L240.631 209.501C240.65 211.081 240.494 214.175 239.202 217.179Z" fill="black"/>
<path d="M312.605 219.02L311.669 218.882C311.82 217.861 311.905 216.735 311.91 215.533C311.929 212.586 311.101 210.036 310.401 208.418L311.272 208.045C312.005 209.748 312.879 212.43 312.856 215.543C312.851 216.782 312.766 217.95 312.605 219.02Z" fill="black"/>
<path d="M316.681 214.923C316.587 210.055 315.05 206.266 315.035 206.228L315.91 205.868C315.977 206.029 317.528 209.861 317.627 214.904L316.681 214.923Z" fill="black"/>
<path d="M319.902 210.906C319.703 207.311 318.483 204.416 318.469 204.387L319.339 204.014C319.391 204.137 320.639 207.093 320.848 210.854L319.902 210.906Z" fill="black"/>
<path d="M295.211 131.845C290.567 124.938 282.338 127.053 276.408 134.432L277.77 137.696C278.02 138.297 278.805 138.444 279.259 137.976L282.816 134.262C283.549 133.496 284.845 133.855 285.062 134.891C285.488 136.906 286.538 139.645 289.125 141.58C291.92 143.671 294.842 142.848 296.559 140.308C297.235 137.328 296.914 134.376 295.211 131.845Z" fill="black"/>
<path d="M287.346 148.09C286.958 147.707 286.958 147.078 287.341 146.69L288.069 145.957C288.452 145.569 289.081 145.569 289.469 145.952C289.857 146.335 289.857 146.964 289.474 147.352L288.746 148.085C288.363 148.473 287.734 148.478 287.346 148.09Z" fill="black"/>
<path d="M281.406 145.464C281.018 145.081 281.018 144.452 281.401 144.064L282.13 143.331C282.513 142.943 283.142 142.943 283.53 143.326C283.917 143.709 283.917 144.338 283.534 144.726L282.806 145.46C282.423 145.847 281.794 145.847 281.406 145.464Z" fill="black"/>
<path d="M289.772 212.676C289.767 212.17 290.032 211.455 290.567 210.547C290.935 209.923 291.333 209.369 291.602 209.01C293.432 206.597 294.128 204.544 294.809 202.557C295.414 200.779 295.986 199.099 297.301 197.358L298.058 197.931C296.833 199.553 296.284 201.162 295.707 202.865C295.04 204.828 294.284 207.047 292.359 209.587C292.104 209.923 291.73 210.448 291.385 211.03C290.779 212.056 290.723 212.515 290.723 212.666L289.772 212.676Z" fill="black"/>
<path d="M306.528 214.327C306.221 212.108 305.436 210.566 304.201 209.748C303.535 209.308 302.716 209.062 301.766 209.019C300.238 208.953 298.924 210.24 297.727 211.635L297.008 211.02C298.361 209.44 299.884 207.983 301.804 208.073C302.929 208.125 303.908 208.418 304.722 208.958C306.192 209.932 307.115 211.697 307.465 214.194L306.528 214.327Z" fill="black"/>
<path d="M245.791 185.698L245.044 185.116C248.236 181.029 250.53 178.171 251.854 176.624C257.5 170.035 258.503 161.047 254.247 155.257L255.008 154.694C259.525 160.839 258.503 170.319 252.573 177.239C251.258 178.777 248.978 181.625 245.791 185.698Z" fill="black"/>
<path d="M282.153 195.523L281.264 195.192C283.151 190.13 284.665 185.792 285.767 182.301C286.391 180.329 287.048 178.19 287.654 175.929L288.566 176.175C287.961 178.455 287.294 180.603 286.67 182.585C285.563 186.09 284.04 190.443 282.153 195.523Z" fill="black"/>
<path d="M281.393 152.929C280.442 152.082 278.588 151.321 278.569 151.316L278.924 150.441C279.004 150.474 280.943 151.269 282.022 152.224L281.393 152.929Z" fill="black"/>
<path d="M272.733 153.033C269.697 148.014 271.674 141.618 271.674 141.618C269.101 144.4 265.833 147.498 265.833 147.498C261.615 155.034 265.417 168.507 275.949 169.179C285.232 169.77 284.457 159.713 282.054 155.782C282.054 155.786 275.769 158.048 272.733 153.033Z" fill="#EC8C92"/>
<path d="M275.159 156.061C271.026 153.818 270.704 148.657 270.69 148.44L271.636 148.388C271.641 148.435 271.948 153.241 275.613 155.228L275.159 156.061Z" fill="black"/>
</svg>
