<svg width="1440" height="1024" viewBox="0 0 1440 1024" fill="none" xmlns="http://www.w3.org/2000/svg">
<rect x="1440" y="6.10352e-05" width="1168" height="1440" transform="rotate(90 1440 6.10352e-05)" fill="#020617"/>
<mask id="mask0_28_443" style="mask-type:alpha" maskUnits="userSpaceOnUse" x="0" y="0" width="1440" height="1169">
<rect x="1440" y="6.10352e-05" width="1168" height="1440" transform="rotate(90 1440 6.10352e-05)" fill="#020617"/>
</mask>
<g mask="url(#mask0_28_443)">
<path fill-rule="evenodd" clip-rule="evenodd" d="M991.464 399.921C1025.33 399.842 1063.41 368.398 1083.04 354.966C1121.87 328.408 1157.73 300.787 1194.16 273.421C1230.59 246.055 1266.92 218.615 1306.91 192.52C1332.88 175.577 1362.12 155.668 1399.19 144.177C1478.19 119.698 1466.46 196.879 1468.19 216.872C1472.6 267.732 1470.59 326.069 1511.73 373.742C1536.29 402.201 1577.48 413.55 1637.51 407.437C1657.04 405.467 1679.5 399.635 1698.52 404.576C1718.84 409.851 1730.56 421.987 1738.42 432.06C1767.06 468.798 1770.38 511.039 1773.97 549.911C1777.92 591.826 1776.76 634.136 1777.07 675.756C1777.2 693.404 1789.91 711.835 1800.24 728.64C1813.78 750.672 1828.99 772.442 1843.69 794.292C1875.96 842.359 1909.95 891.889 1918.15 942.745C1923.29 974.593 1916.34 1009.4 1871.68 1034.14C1849.25 1046.56 1815.91 1053.06 1786.29 1060.25C1750.52 1068.94 1714.39 1077.29 1679.18 1086.54C1565.76 1116.36 1454.93 1158.92 1449.36 1228.01C1448.52 1238.46 1451.25 1248.73 1451.77 1259.13C1452.08 1265.76 1448.87 1271.65 1434.98 1274.11C1400.13 1280.31 1345.11 1260.84 1317.46 1252.87C1256.93 1235.39 1199.12 1215.69 1139.81 1197.24C1100.59 1185.03 1046.98 1163.89 999.325 1163.67C956.861 1163.47 926.168 1191.65 905.252 1206.98C885.669 1221.36 858.265 1247.4 818.428 1248.97C799.112 1249.74 783.104 1243.38 770.68 1236.75C748.954 1225.12 733.628 1211.72 708.841 1201.26C668.174 1184.11 612.22 1169.77 557.421 1172.1C519.451 1173.72 494.584 1184.52 470.814 1198.27C460.82 1204.05 453.75 1208.74 437.524 1209.04C411.759 1209.54 384.494 1204.5 360.605 1200.36C275.114 1185.52 192.447 1164.45 115.261 1141.01C76.6876 1129.3 38.2329 1116.64 5.3281 1101.11C-16.2792 1090.94 -41.9947 1077.22 -41.9651 1061.71C-41.9651 1043.75 -28.9691 1024.74 -19.2517 1007.28C-1.09089 974.666 19.9042 942.449 41.4424 910.36C91.2736 836.15 145.141 762.637 203.043 689.823C243.898 638.534 284.811 586.157 339.126 537.937C349.792 528.533 362.229 519.657 376.267 511.428C391.011 502.636 397.608 491.726 402.526 480.664C433.051 412.003 409.617 336.782 394.922 267.835C391.199 250.335 387.456 232.835 384.849 215.286C382.607 200.199 376.178 182.137 385.837 167.474C404.847 138.582 474.913 163.839 503.462 174.518C603.984 212.114 689.031 260.619 775.855 305.579C817.203 326.955 858.443 348.494 902.132 368.708C924.845 379.234 961.779 399.99 991.464 399.921Z" stroke="#64748B" stroke-width="5"/>
<path fill-rule="evenodd" clip-rule="evenodd" d="M997.172 412.877C1033 401.353 1059.49 381.135 1084.41 364.352C1120.29 340.201 1154.18 315.291 1189.05 290.755C1222.01 267.555 1255.36 244.306 1292.8 222.821C1315.63 209.721 1342.93 193.283 1376.7 187.077C1449.9 173.617 1438.79 246.031 1440.71 263.908C1445.45 308.351 1446.53 358.739 1485.07 399.855C1509.13 425.529 1549.04 436.077 1604.45 430.601C1623.62 428.708 1639.98 425.297 1659.05 429.615C1681.13 434.608 1694.89 446.092 1704.6 456.62C1735.03 489.599 1741.5 528.581 1746.88 564.33C1752.43 601.261 1756.35 639.741 1752.29 675.484C1750.67 689.778 1759.86 706.23 1766.9 720.376C1777.76 742.142 1790.29 763.686 1801.94 785.343C1825.63 829.357 1848.45 874.515 1851.05 920.304C1852.92 953.362 1842.75 987.829 1803.46 1015.33C1763.61 1043.2 1701.83 1055.57 1643.11 1071.03C1541.59 1097.72 1418.15 1133.78 1396.7 1195.53C1393.44 1204.9 1395.21 1213.9 1394.41 1223.25C1394.01 1228.06 1392.72 1233.54 1383.22 1235.98C1358.54 1242.31 1313.42 1224.96 1294.52 1219.12C1242.28 1202.98 1192.6 1184.84 1141.37 1167.93C1100.69 1154.5 1055.49 1137.47 1007.27 1132.28C948.755 1125.97 907.119 1167.16 865.917 1181.65C794.471 1206.76 753.763 1159.18 719.698 1135.73C680.589 1108.79 609.241 1086.56 548.732 1110.7C525.594 1119.94 511.804 1131.31 481.609 1135.43C434.386 1141.88 380.421 1137 333.741 1131.77C263.568 1123.88 194.155 1111.4 130.734 1094.44C85.3269 1082.28 14.1273 1062.12 19.4675 1032.59C23.0309 1012.71 36.0508 992.506 47.5604 973.151C64.7853 944.169 84.4188 915.553 104.812 887.089C151.759 821.382 203.523 756.401 260.459 692.696C299.321 649.229 458.136 527.979 463.802 518.856C480.681 491.654 477.71 460.726 475.094 432.681C471.619 395.374 462.617 358.256 454.276 321.166C450.328 303.511 445.501 285.767 443.556 268.019C442.174 255.386 440.99 238.796 455.707 227.73C484.422 206.132 550.124 230.195 577.921 240.146C663.137 270.631 736.933 309.194 812.387 345.352C849.433 363.096 886.42 381.11 926.437 397.218C942.595 403.714 975.042 419.999 997.172 412.877Z" stroke="#475569" stroke-width="5"/>
<path fill-rule="evenodd" clip-rule="evenodd" d="M1015.55 428.819C1087.25 397.348 1140.58 353.912 1200.47 316.424C1230.53 297.608 1261.42 278.675 1297.23 262.446C1315.85 254.004 1339.4 243.463 1365.36 241.837C1434.8 237.49 1425.41 302.758 1428.05 322.293C1433.16 360.062 1437.04 402.73 1472.48 436.995C1494.14 457.929 1529.7 468.239 1576.43 464.326C1597.17 462.591 1614.78 459.891 1635.14 464.326C1655.77 468.82 1670.32 478.184 1681.23 487.665C1712.61 514.913 1722.64 548.774 1730.12 579.451C1738.82 615.439 1742.22 651.697 1740.29 687.933C1738.62 719.67 1757.39 751.255 1769.76 782.242C1786.14 823.294 1800.45 865.089 1798.28 907.096C1796.57 940.272 1783.07 973.709 1747.2 1002.07C1710.66 1030.89 1655.98 1048.22 1596.98 1063.84C1507.78 1087.45 1388.25 1116.88 1354.37 1168.69C1349.43 1176.23 1348.89 1183.25 1348.03 1191.02C1347.61 1194.8 1347.49 1199.67 1339.6 1201.54C1320.6 1206.05 1283.77 1189.4 1270.94 1184.75C1229.96 1169.92 1190.83 1153.84 1150.4 1138.63C1112.65 1124.44 1073.31 1108.98 1029.08 1100.16C958.627 1086.13 917.434 1130.99 850.302 1129.73C808.625 1128.95 778.737 1109.03 758.061 1093.26C732.636 1073.85 715.92 1045.89 669.523 1036.17C634.965 1028.93 614.852 1040.29 588.627 1049.04C544.195 1063.86 483.965 1064.87 432.532 1063.33C363.031 1061.25 292.502 1053.13 228.619 1039.29C199.659 1033.02 169.534 1025.35 147.042 1014.04C125.961 1003.45 120.56 993.426 124.875 979.273C138.106 935.945 174.985 892.198 207.923 850.649C249.314 798.446 295.01 746.962 346.423 697.016C381.485 662.958 418.581 628.131 467.021 598.237C479.65 590.446 493.375 582.467 510.032 576.77C522.552 572.463 532.89 570.635 540.038 563.376C561.217 541.86 555.678 511.931 553.476 488.878C549.971 452.015 540.64 415.331 532.238 378.695C527.301 357.317 511.769 317.045 549.023 299.974C581.192 285.239 636.041 303.019 664.379 312.102C736.043 335.077 798.939 364.63 863.701 392.05C893.381 404.617 923.289 417.676 956.287 428.055C964.7 430.706 975.847 434.954 986.067 435.684C997.777 436.502 1006.71 432.682 1015.55 428.819Z" stroke="#64748B" stroke-width="5"/>
<path fill-rule="evenodd" clip-rule="evenodd" d="M998.857 431.525C1062.26 402.445 1114.34 367.41 1173.67 336.191C1200.27 322.193 1228.17 308.058 1260.63 297.392C1278.08 291.654 1300.04 285.562 1321.73 287.144C1383.98 291.684 1378.36 345.364 1382.01 367.051C1387.36 399.275 1392.76 436.296 1426.33 464.789C1448.31 483.455 1480.78 490.454 1522.66 486.969C1567.58 483.228 1600.19 491.592 1625.25 510.628C1656.64 534.493 1669.44 564.618 1678.53 592.328C1689.43 625.713 1694.26 659.521 1692.97 693.34C1691.7 726.23 1702.75 758.095 1709.93 790.768C1719.45 834.087 1724.14 878.797 1704.64 921.628C1687.65 958.92 1650.22 992.604 1592.33 1017.85C1531.92 1044.23 1455.8 1057.28 1388.96 1078.7C1347.28 1092.06 1292.13 1110.68 1275.92 1135.64C1270.52 1143.97 1277.81 1159.14 1251.22 1152.49C1236.01 1148.69 1222.67 1141.58 1210.24 1135.96C1190.15 1126.88 1170.62 1117.5 1150.8 1108.27C1108.57 1088.59 1065.44 1067.52 1015.43 1052.77C952.464 1034.19 904.006 1061.81 840.162 1058.45C805.805 1056.64 778.384 1044.72 756.843 1032.11C742.89 1023.96 730.805 1015.03 719.53 1005.92C707.752 996.399 698.779 985.136 683.552 976.836C661.882 965.007 636.23 970.143 608.217 972.361C558.985 976.265 508.976 977.122 459.324 974.914C398.464 972.213 335.866 965.879 280.56 952.537C259.028 947.347 236.202 940.772 221.765 931.008C207.329 921.244 208.317 911.145 212.665 899.956C225.51 866.77 255.402 833.654 283.732 802.173C319.196 762.772 358.83 724.145 403.919 687.257C435.045 661.795 468.672 636.249 510.875 614.946C523.158 608.751 536.31 602.856 550.993 598.09C561.063 594.817 574.057 593.062 581.626 588.321C605.252 573.485 598.197 543.7 596.823 526.301C594.086 491.578 581.072 457.401 577.91 422.722C576.181 403.795 571.833 374.153 604.136 360.254C634.501 347.183 682.327 359.022 711.586 366.834C769.115 382.187 820.37 402.814 873.848 421.302C895.854 428.903 918.878 437.232 944.006 442.156C966.397 446.533 982.603 438.977 998.857 431.525Z" stroke="#475569" stroke-width="5"/>
<path fill-rule="evenodd" clip-rule="evenodd" d="M997.82 438.677C1053.61 415.53 1103.13 387.626 1159.83 364.312C1193.03 350.665 1248.85 327.163 1295.66 337.717C1347.1 349.296 1348.5 389.655 1352.65 412.984C1357.58 440.75 1364.32 473.358 1396.44 497.12C1406.59 504.636 1420.03 511.038 1437.73 513.752C1456.68 516.657 1473.25 513.481 1492.22 513.067C1532 512.2 1563.94 524.05 1585.88 539.73C1616.89 561.892 1631.55 589.604 1641.78 615.78C1653.31 645.436 1658.99 675.583 1658.75 705.792C1658.55 734.661 1659.83 763.226 1661.31 792.125C1663.29 829.918 1660.1 868.243 1639.98 904.904C1620.15 941.018 1582.98 973.852 1528.3 999.644C1474.95 1024.8 1409.74 1041.78 1343.31 1056.65C1305.61 1065.09 1249.27 1079.34 1230.22 1099.46C1221.75 1108.41 1222.33 1117.19 1200.29 1107.68C1172.53 1095.69 1150.26 1079.54 1126.52 1065.67C1092.26 1045.65 1057.33 1025.12 1016.6 1008.32C990.588 997.59 965.347 992.808 931.671 993.547C906.016 994.118 880.627 996.708 854.874 995.398C794.427 992.33 752.975 968.578 714.375 947.578C689.549 934.069 670.613 921.732 635.299 914.778C593.56 906.554 548.151 903.102 504.814 897.605C457.225 891.568 407.721 884.594 365.805 871.415C328.487 859.684 311.752 845.417 321.807 824.062C337.476 790.756 376.077 757.926 411.786 728.358C448.117 698.262 488.968 668.683 538.906 643.744C565.873 630.279 597.537 621.089 626.507 609.132C662.878 594.091 649.103 560.065 646.024 539.844C640.913 506.276 602.668 400.652 726.541 410.399C778.245 414.466 825.963 430.487 871.589 442.203C890.524 447.059 913.248 454.087 934.946 455.185C958.578 456.382 981.026 445.636 997.82 438.677Z" stroke="#1E293B" stroke-width="5"/>
<path fill-rule="evenodd" clip-rule="evenodd" d="M993.083 450.898C1043.64 433.21 1091.4 412.041 1146.01 396.863C1181.37 387.017 1228.62 377.349 1266.03 390.05C1308.26 404.386 1318.1 435.996 1323.48 459.223C1329.02 483.154 1333.68 511.722 1365.7 531.281C1375.89 537.504 1389.65 542.634 1406.11 543.589C1421.91 544.509 1437.71 541.91 1453.79 542.771C1489.9 544.701 1519.66 555.625 1541.24 569.71C1605.08 611.373 1619.28 673.384 1620.95 723.652C1621.78 748.814 1617.42 774.709 1614.3 800.033C1610.25 832.894 1601.57 865.804 1580.63 897.144C1536.12 963.777 1437.42 1008.44 1314.6 1039.63C1275.94 1049.45 1234.11 1056.96 1203.04 1072.34C1187 1080.27 1175.48 1078.54 1160.84 1070.43C1137.98 1057.76 1120.51 1042.29 1101.42 1028.22C1074.28 1008.21 1046.74 987.771 1014.23 970.073C991.819 957.874 970.229 949.214 936.623 946.586C912.663 944.71 888.248 945.148 864.14 944.021C818.342 941.874 772.89 934.524 734.901 921.513C704.79 911.174 677.424 898.867 651.331 886.146C617.361 869.609 582.847 855.623 542.528 843.065C489.158 826.415 390.711 803.021 416.764 763.804C445.512 720.551 518.558 680.01 589.333 652.259C613.096 642.94 642.239 635.289 659.762 622.721C685.954 603.905 685.036 584.814 684.927 562.434C684.779 528.928 670.197 456.018 770.817 455.231C810.681 454.92 848.374 463.526 886.718 467.646C929.663 472.294 958.629 462.979 993.083 450.898Z" stroke="#334155" stroke-width="5"/>
<path fill-rule="evenodd" clip-rule="evenodd" d="M988.575 464.073C1054.47 446.577 1162.74 407.343 1236.01 437.183C1274.73 452.946 1289.28 480.825 1297.96 504.213C1304.97 523.034 1307.6 545.731 1337.34 559.952C1359.2 570.404 1391.02 565.764 1418.38 569.769C1452.31 574.739 1480.07 586.147 1500.94 600.166C1559.25 639.34 1577.15 693.809 1580.96 740.933C1584.9 789.875 1566.44 843.802 1530.94 889.857C1486.65 947.281 1402.8 990.303 1296.6 1020.39C1277 1025.94 1256.89 1030.98 1237.05 1036.31C1223.74 1039.89 1210.86 1045.2 1196.86 1048.03C1173.52 1052.73 1154.44 1047.19 1139.23 1038.31C1117.33 1025.55 1101.74 1009.86 1085.31 995.307C1062.81 975.402 1040.72 955.054 1014.33 936.538C996.576 924.096 977.447 911.072 946.637 906.619C925.624 903.58 903.367 902.95 881.604 903.058C834.94 903.295 797.205 902.073 754.468 891.207C684.305 873.327 621.215 845.831 568.721 816.784C527.523 793.988 463.525 757.917 491.07 724.703C515.733 694.902 574.768 677.47 622.497 657.836C645.701 648.29 666.892 637.567 683.397 624.967C704.203 609.081 712.934 594.127 716.338 575.305C722.07 543.628 723.559 495.863 799.721 486.071C827.827 482.456 856.94 484.519 885.412 482.623C923.059 480.145 955.339 472.9 988.575 464.073Z" stroke="#64748B" stroke-width="5"/>
<path fill-rule="evenodd" clip-rule="evenodd" d="M986.136 482.266C1058.23 469.807 1149.1 453.439 1213.18 483.531C1244.22 498.106 1261.57 518.609 1274.54 538.451C1283.83 552.663 1286.57 575.227 1315.14 583.94C1336.17 590.339 1365.17 591.226 1387.7 597.014C1418.67 604.969 1444.18 617.02 1464.16 631.157C1516.19 667.987 1536.3 715.957 1542.06 759.703C1554.55 854.757 1455.05 951.475 1291.34 1002.34C1242.54 1017.51 1190.6 1037.08 1140.74 1012.57C1086.35 985.814 1060.87 945.504 1022.22 913.567C1007.47 901.364 989.731 885.813 963.015 879.006C946.956 874.91 926.808 874.629 909.129 874.442C864.102 873.95 823.609 872.084 781.595 863.052C716.667 849.101 656.766 826.856 607.7 801.648C564.915 779.664 514.635 748.313 545.479 716.385C569.182 691.906 619.493 676.38 656.579 657.359C697.882 636.193 725.714 610.015 739.314 581.267C752.509 553.302 761.407 522.63 817.466 507.892C836.695 502.837 861.594 497.555 882.877 495.66C917.97 492.6 952.503 488.121 986.136 482.266V482.266Z" stroke="#1E293B" stroke-width="5"/>
<path fill-rule="evenodd" clip-rule="evenodd" d="M985.627 502.551C1058.43 496.787 1134.35 496.147 1191.72 522.927C1218.49 535.425 1237.51 551.224 1254.74 567.2C1267.42 578.954 1278.12 591.093 1298.9 599.871C1318.15 608.005 1340.49 614.187 1360.24 622.04C1386.41 632.398 1409.07 644.793 1427.34 658.746C1473.05 693.723 1494.42 736.272 1501.84 776.979C1505.44 796.684 1507.32 818.059 1497.49 837.632C1488.01 856.534 1473.03 875.225 1455.55 892.605C1418.43 929.553 1364.07 961.574 1295.35 984.787C1248.21 1000.7 1202.37 1009.31 1154.55 988.698C1100.64 965.461 1070.9 929.025 1035.92 898.994C1011.92 878.397 988.402 855.312 937.411 851.465C896.837 848.401 858.327 845.913 819.975 837.986C763.405 826.189 712.161 808.844 669.283 786.979C630.22 766.983 597.072 741.686 617.936 713.084C634.495 690.423 671.593 672.84 698.116 653.041C727.739 630.976 744.071 606.734 757.204 581.205C769.053 558.263 787.262 536.661 825.92 521.833C833.819 518.798 842.42 515.611 851.257 513.271C862.534 510.286 873.712 510.517 886.351 509.931C919.706 508.404 952.677 505.157 985.627 502.551Z" stroke="#334155" stroke-width="5"/>
<path fill-rule="evenodd" clip-rule="evenodd" d="M991.578 524.918C1060.73 525.41 1126.09 533.707 1179.98 556.432C1203.03 566.147 1222.02 577.748 1243.15 588.438C1260.18 597.046 1276 605.18 1290.04 615.077C1323.27 638.555 1366.27 657.636 1395.86 682.586C1435.42 715.893 1457.29 754.044 1466.03 791.9C1470.31 810.385 1471.8 829.481 1466.97 848.182C1462.83 864.245 1448.28 879.627 1433.4 893.897C1404.24 921.866 1362.8 949.022 1310.37 967.182C1194.78 1007.22 1110.75 928.282 1061.53 887.767C1038.89 869.134 1012.67 840.663 967.832 833.031C935.797 827.575 903.219 824.251 872.173 817.225C788.798 798.351 690.737 760.037 703.792 708.979C709.37 687.131 732.028 667.218 747.24 646.823C762.906 625.822 771.639 604.146 781.222 582.318C790.173 561.917 802.912 545.658 837.063 532.481C853.372 526.183 872.895 526.74 892.903 526.179C925.768 525.263 958.822 524.696 991.578 524.918Z" stroke="#64748B" stroke-width="5"/>
<path fill-rule="evenodd" clip-rule="evenodd" d="M1000.44 545.285C1104.82 553.488 1218.77 583.952 1279.39 628.747C1350.69 681.438 1410.74 738.522 1428 801.477C1436.01 830.665 1439.94 862.638 1413.77 890.179C1393.86 911.14 1364.11 935.486 1322.26 947.022C1219.9 975.243 1138.42 912.47 1091.07 876.707C1065.57 857.452 1040.73 832.942 1003.51 818.43C981.921 810.01 953.368 805.712 929.662 798.914C857.822 778.313 799.878 744.403 789.515 702.162C784.728 682.631 790.65 662.958 795.358 643.575C800.174 623.733 802.79 603.646 809.511 583.928C814.88 568.188 823.969 549.638 857.733 543.841C900.28 536.53 957.809 541.938 1000.44 545.285Z" stroke="#475569" stroke-width="5"/>
<path fill-rule="evenodd" clip-rule="evenodd" d="M1017.2 565.257C1115.34 577.22 1211.06 602.553 1269.65 645.139C1300.71 667.723 1322.16 693.939 1343.34 719.109C1367.36 747.639 1386 777.448 1395.24 807.894C1406.76 845.802 1417.14 907.196 1330.56 927.001C1244.63 946.659 1168.57 896.985 1125.23 867.611C1097.46 848.778 1071.97 828.622 1041.62 810.628C1025.16 800.871 1006.15 793.355 986.849 785.098C933.372 762.277 891.036 729.744 868.436 696.584C846.527 664.446 836.827 624.687 844.068 590.762C847.179 576.124 857.679 565.662 887.529 561.235C929.025 555.1 976.665 560.312 1017.2 565.257Z" stroke="#334155" stroke-width="5"/>
<path fill-rule="evenodd" clip-rule="evenodd" d="M1043.63 585.102C1130.04 596.987 1208.96 622.62 1260.81 660.01C1318.95 701.923 1351.25 755.892 1367.68 805.496C1376.4 831.863 1400.06 889.002 1332.36 902.441C1264.65 915.881 1197.93 877.029 1161.2 854.668C1116.69 827.528 1073.71 798.267 1033.78 769.041C999.055 743.649 963.556 716.553 936.741 689.05C921.53 673.538 909.11 657.379 899.628 640.764C892.664 628.462 882.277 612.818 887.461 599.919C900.553 567.386 1002.32 579.418 1043.63 585.102Z" stroke="#1E293B" stroke-width="5"/>
<path fill-rule="evenodd" clip-rule="evenodd" d="M1069.51 609.599C1232.91 635.674 1313.27 718.29 1341.28 797.835C1347.78 816.319 1371.23 868.136 1321.31 878.468C1272.92 888.48 1215.52 856.638 1188.33 841.731C1104.07 795.538 1041.6 738.466 979.703 684.387C960.384 667.506 918.461 637.062 937.8 616.123C958.835 593.388 1035.63 604.197 1069.51 609.599Z" stroke="#475569" stroke-width="5"/>
<path fill-rule="evenodd" clip-rule="evenodd" d="M1100.96 636.308C1221.29 658.985 1290.3 724.942 1313.06 785.583C1318.62 800.436 1335.96 838.158 1302.38 849.407C1271.31 859.818 1226.3 834.974 1208.42 825.679C1168.59 804.987 1135.78 780.464 1104.24 756.237C1075.07 733.837 1045.16 711.195 1020.48 687.625C1007.49 675.21 979.778 651.926 999.834 637.819C1021.41 622.63 1074.24 631.273 1100.96 636.308Z" stroke="#475569" stroke-width="5"/>
<path fill-rule="evenodd" clip-rule="evenodd" d="M1136.11 665.741C1214.7 683.025 1265.72 729.316 1282.68 770.15C1287.23 781.137 1299.05 804.885 1278.06 814.154C1258.73 822.687 1230.4 808.934 1217.31 802.831C1159.31 775.779 1107.5 736.165 1075.68 699.869C1067.69 690.744 1051.98 674.339 1068.13 664.951C1084.71 655.322 1118.07 661.771 1136.11 665.741Z" stroke="#64748B" stroke-width="5"/>
<path fill-rule="evenodd" clip-rule="evenodd" d="M1169.12 696.965C1208.14 706.704 1237.58 732.159 1246.96 753.244C1253.55 768.084 1247.85 785.921 1213.89 772.989C1180.18 760.141 1149.39 736.303 1135.75 716.099C1125.34 700.684 1135.61 688.602 1169.12 696.965Z" stroke="#334155" stroke-width="5"/>
<path fill-rule="evenodd" clip-rule="evenodd" d="M898.863 -92.8166C975.954 -93.4412 1056.07 -113.877 1134.62 -103.785C1199.14 -95.4971 1204.52 -53.7739 1233.75 -28.7439C1256.97 -8.85373 1298.11 2.43412 1337.57 13.1908C1373.01 22.8555 1409.51 31.5366 1444.36 41.7178C1466.89 48.3085 1511.13 59.6259 1511.93 73.9189C1512.7 87.602 1478.22 100.149 1457.84 108.097C1431.28 118.46 1402.96 127.648 1375.97 137.711C1330.44 154.67 1296.74 175.018 1264.85 198.316C1228.57 224.83 1193.52 251.781 1159.71 279.171C1134.74 299.336 1109.96 319.64 1082.53 339.023C1065.32 351.182 1033.02 378.017 1001.29 378.14C986.144 378.199 969.374 371.042 957.271 366.217C936.782 358.053 918.05 348.747 899.721 339.412C865.581 322.025 832.989 303.901 800.002 285.973C757.19 262.704 715.079 240.477 666.477 220.021C616.169 198.872 564.203 178.667 512.947 158.049C478.224 144.085 439.23 130.137 417.923 109.996C391.289 84.7689 419.373 64.0623 419.699 38.5503C419.985 16.6041 521.944 18.2223 550.294 15.4336C578.99 12.635 605.702 6.46722 634.467 4.07685C670.374 1.09628 707.109 1.05692 743.4 0.324069C787.79 -0.566169 830.049 -0.920287 846.976 -24.5829C856.594 -38.0497 858.616 -52.6181 864.377 -66.557C868.116 -75.5872 874.508 -92.6198 898.863 -92.8166Z" stroke="#1E293B" stroke-width="5"/>
<path fill-rule="evenodd" clip-rule="evenodd" d="M912.577 -82.0275C977.198 -84.3279 1059.91 -97.9185 1126.61 -85.0668C1183.62 -74.0869 1191.01 -39.7485 1220.95 -16.6263C1245.65 2.46158 1286.07 10.9588 1325.77 20.5002C1357.62 28.1551 1389.78 35.5784 1420.61 44.2677C1443.34 50.6714 1481.7 60.4493 1486.4 73.7641C1490.63 85.734 1456.76 98.5709 1439.53 105.29C1414.38 115.092 1387.06 123.476 1360.32 132.136C1313.34 147.352 1271.1 162.933 1236.59 185.203C1201.93 207.571 1176.02 232.043 1149.05 256.776C1127.95 276.125 1106.23 295.375 1081.87 313.759C1063.73 327.453 1040.51 347.142 1008.17 353.408C982.582 358.368 940.121 333.211 925.134 325.793C894.32 310.523 865.393 294.341 836.644 278.13C801.612 258.367 770.976 237.974 731.014 220.521C659.567 189.306 570.593 163.213 517.492 123.048C485.463 98.8221 477.273 71.8626 482.064 44.9179C483.961 34.2484 514.162 31.6869 531.777 30.3422C561.04 28.1058 590.806 27.825 620.188 26.1059C647.692 24.4951 673.823 20.9189 700.793 18.0373C728.12 15.1211 756.118 14.3034 783.632 12.1557C800.713 10.8257 820.59 9.51053 834.323 3.69304C848.539 -2.32642 854.496 -12.257 859.021 -20.9365C867.438 -37.2363 866.974 -80.402 912.577 -82.0275Z" stroke="#64748B" stroke-width="5"/>
<path fill-rule="evenodd" clip-rule="evenodd" d="M939.628 -68.1413C998.945 -72.0101 1072.83 -77.4263 1127.48 -61.6654C1172.16 -48.7827 1181.8 -21.3071 1210.92 -1.68237C1235.13 14.6404 1273.64 20.8057 1309.42 28.908C1338.78 35.5563 1368.26 42.2392 1396.19 50.2971C1417.37 56.4082 1446.09 64.2838 1453.48 76.4174C1459.8 86.7916 1431.51 98.5112 1417.43 104.263C1393.44 114.055 1366.55 122.039 1340.02 129.969C1296.61 142.94 1250.23 154.877 1214.92 173.338C1180.66 191.278 1160.43 212.588 1137.69 234.297C1120.26 250.926 1102.17 267.45 1081.39 283.118C1065.45 295.148 1046.55 310.056 1020.02 316.325C997.14 321.746 970.056 307.828 953.915 300.875C927.275 289.391 902.836 276.647 878.298 264.079C851.827 250.517 827.407 235.495 800.284 222.371C743.207 194.772 680.012 172.722 636.284 138.707C607.958 116.677 582.226 87.033 586.853 60.9916C590.188 42.2638 673.283 43.4959 699.834 41.697C743.246 38.74 788.859 33.0281 828.848 23.9549C863.114 16.1632 873.681 -2.35263 881.367 -19.385C886.192 -30.0549 888.796 -41.2374 896.255 -51.5574C904.898 -63.5037 914.765 -66.5199 939.628 -68.1413Z" stroke="#475569" stroke-width="5"/>
<path fill-rule="evenodd" clip-rule="evenodd" d="M967.432 -55.1886C1017.58 -57.4921 1076.88 -56.9742 1120.27 -42.0532C1158.26 -28.9771 1168.27 -5.69547 1198.2 10.8631C1221.55 23.7863 1259.63 28.8619 1290.52 35.8119C1328.28 44.3057 1398.02 56.2079 1412.23 77.6349C1425.44 97.5673 1341.05 118.412 1315.89 125.628C1276.06 137.052 1232.38 146.607 1195.6 160.462C1163.93 172.394 1146.43 188.38 1127.62 205.348C1103.59 226.982 1075.1 259.828 1028.28 271.395C993.387 280.017 941.516 251.98 917.342 242.406C892.089 232.393 862.155 224.851 837.793 214.518C799.35 198.211 768.397 171.787 744.777 149.971C721.8 128.761 696.369 101.217 697.883 77.1564C698.872 61.3427 747.835 58.3338 771.752 54.96C805.752 50.1261 836.22 43.699 859.345 29.8928C882.886 15.84 893.979 -0.723482 903.686 -18.1354C908.634 -27.0731 912.493 -37.2687 922.487 -45.2643C933.362 -54.0985 948.156 -54.3007 967.432 -55.1886Z" stroke="#334155" stroke-width="5"/>
<path fill-rule="evenodd" clip-rule="evenodd" d="M996.338 -39.4067C1039.66 -39.2789 1085.86 -34.3378 1119.28 -19.6865C1147.12 -7.48358 1156.43 11.6172 1184.88 23.2989C1207.41 32.5519 1239.04 37.2619 1265.2 43.4568C1297.26 51.0332 1353.27 61.7464 1364.4 80.5866C1375.23 98.9745 1313.54 115.238 1289.13 122.289C1253.34 132.614 1215.4 140.972 1179.7 151.39C1151.7 159.551 1133.65 169.532 1115.6 182.821C1094.4 198.422 1070.92 220.187 1035.84 228.521C1010.45 234.529 969.87 219.985 947.498 214.705C932.472 211.165 917.21 207.925 900.923 206.145C888.241 204.759 876.504 204.621 865.613 200.604C838.22 190.491 834.645 168.317 825.616 153.273C813.632 133.292 800.014 112.092 797.415 91.1817C795.79 78.3299 819.53 71.7712 836.23 64.4357C855.973 55.7678 870.172 43.4961 885.07 32.778C904.764 18.6331 917.013 3.23941 929.558 -12.6853C935.22 -19.8684 940.773 -28.3052 952.028 -33.8707C963.696 -39.682 980.702 -39.451 996.338 -39.4067Z" stroke="#1E293B" stroke-width="5"/>
<path fill-rule="evenodd" clip-rule="evenodd" d="M1022.06 -22.8311C1058.45 -20.2916 1093.22 -12.3777 1118.95 0.989234C1138.7 11.2359 1149.82 24.8441 1173.54 33.068C1195.66 40.7309 1220.81 46.0708 1244.46 52.3999C1269.46 59.0981 1311.25 69.0496 1318.06 84.4983C1325.38 101.148 1283.23 113.974 1259.87 121.075C1230.34 130.047 1198.58 136.864 1168.03 144.886C1145.27 150.929 1124.45 158.638 1106.27 167.756C1087.1 177.319 1068.75 190.287 1042.39 195.125C1019.05 199.402 990.806 191.4 967.136 189.987C941.848 188.476 915.285 191.124 893.571 182.747C848.79 165.473 857.095 122.119 856.137 97.3337C855.15 72.8785 882.551 53.2169 908.62 33.4273C925.831 20.3556 940.406 6.74253 956.442 -6.65889C972.804 -20.3211 990.035 -25.0655 1022.06 -22.8311Z" stroke="#475569" stroke-width="5"/>
<path fill-rule="evenodd" clip-rule="evenodd" d="M1042.89 -7.43082C1095.6 0.0791104 1123.62 23.5347 1163.46 40.3028C1196.07 54.0226 1263.61 64.3099 1272.54 87.4159C1282.68 113.649 1193.19 129.353 1158.66 138.474C1120.37 148.593 1089.22 166.617 1048.68 174.112C1027.4 178.052 1007.54 174.669 986.276 172.571C962.923 170.271 939.046 168.543 920.249 160.604C883.258 144.979 883.515 114.461 882.497 92.4832C881.439 69.7318 906.789 49.6052 932.089 31.478C958.881 12.2526 988.826 -15.123 1042.89 -7.43082Z" stroke="#475569" stroke-width="5"/>
<path fill-rule="evenodd" clip-rule="evenodd" d="M1057.18 5.14756C1094.74 13.6099 1125.27 31.3926 1154.1 45.8221C1178.13 57.8658 1226.5 70.8221 1229.95 89.1852C1234.02 110.767 1182.36 123.848 1150.69 132.34C1119.56 140.698 1086.7 152.742 1052.54 157.37C1016.96 162.196 969.037 149.344 943.858 137.087C915.78 123.416 905.406 101.05 906.526 81.8588C907.665 61.7645 930.87 43.3271 954.939 28.1088C980.669 11.839 1013.58 -4.6937 1057.18 5.14756Z" stroke="#1E293B" stroke-width="5"/>
<path fill-rule="evenodd" clip-rule="evenodd" d="M1064.25 16.819C1095.49 24.9023 1121.91 38.9139 1145.49 51.8332C1163.68 61.8032 1194.63 76.5149 1195.38 90.8989C1196.22 106.723 1170.25 120.134 1143.63 126.424C1117.37 132.626 1084.45 139.16 1055.64 140.089C992.907 142.104 922.636 101.063 928.354 70.2439C933.777 41.0241 1002.01 0.702174 1064.25 16.819Z" stroke="#475569" stroke-width="5"/>
<path fill-rule="evenodd" clip-rule="evenodd" d="M1067.7 27.6129C1108.4 38.7642 1166.42 65.8509 1167.8 90.9277C1169.37 119.712 1104.8 126.937 1058.01 123.186C1010.25 119.374 941.124 86.1882 950.465 59.7269C959.58 33.9007 1019.43 14.3971 1067.7 27.6129Z" stroke="#64748B" stroke-width="5"/>
<path fill-rule="evenodd" clip-rule="evenodd" d="M1074.28 39.0097C1108.35 48.4512 1150.92 68.5984 1152.21 89.6116C1153.73 114.649 1099.22 114.177 1065.29 108.499C1030.06 102.595 969.888 76.5934 979.388 54.67C988.663 33.3518 1041.61 29.9619 1074.28 39.0097Z" stroke="#1E293B" stroke-width="5"/>
<path fill-rule="evenodd" clip-rule="evenodd" d="M1078.2 48.936C1102.51 55.168 1133.25 70.7653 1134.23 85.5928C1135.41 103.716 1092.17 100.193 1071.3 95.5107C1046.47 89.9448 1003.32 71.2883 1010.32 55.6318C1017.2 40.2171 1058.16 43.7945 1078.2 48.936Z" stroke="#475569" stroke-width="5"/>
<path fill-rule="evenodd" clip-rule="evenodd" d="M-311.149 901.5C-359.936 861.385 -400.207 816.036 -441.139 773.272C-500.948 710.778 -559.148 647.364 -603.701 581.699C-627.582 546.493 -662.011 500.874 -643.301 463.098C-636.463 449.286 -615.78 436.691 -602.34 424.308C-583.808 407.232 -566.194 389.904 -548.54 372.607C-513.154 337.908 -478.123 303.102 -440.467 268.999C-422.33 252.578 -399.486 236.644 -384.014 219.548C-374.965 209.558 -379.198 197.603 -379.77 186.928C-381.102 162.2 -383.629 137.487 -385.78 112.774C-388.405 82.5466 -391.197 52.25 -390.161 21.9879C-389.688 8.33889 -394.543 -25.0893 -370.978 -32.6031C-358.288 -36.6456 -335.404 -27.1179 -324.816 -22.7012C-305.357 -14.5916 -287.822 -5.27066 -270.464 3.92714C-230.322 25.1983 -192.094 47.789 -147.254 66.6966C-124.203 76.4114 -96.0401 89.1397 -64.5715 82.7977C-32.7871 76.3967 -5.26574 65.3081 26.4101 58.5427C62.8619 50.7531 100.794 47.5231 139.446 43.8449C168.014 41.122 193.325 34.7801 219.662 28.8173C248.772 22.2292 278.129 15.4046 308.828 10.8304C329.106 7.8071 365.588 2.92757 378.426 13.5041C396.681 28.5317 381.899 56.711 376.521 73.8412C369.101 97.5151 359.647 121.017 351.506 144.627C345.586 161.767 339.093 178.966 338.402 196.391C337.287 224.482 341.145 252.666 344.737 280.683C351.388 332.561 360.407 384.067 360.407 436.12C360.407 481.724 254.653 587.111 236.033 611.779C198.861 661.018 163.622 711.566 114.165 758.161C100.774 770.766 82.9331 790.166 55.3722 796.799C38.3897 800.89 28.5711 799.009 17.6277 808.66C2.69764 821.827 -3.16392 838.696 -9.84445 853.27C-20.6004 876.743 -29.7084 900.397 -39.448 923.977C-59.0949 971.67 -81.3173 1019.04 -102.701 1066.53C-109.164 1080.89 -110.595 1098.26 -121.983 1111.95C-129.295 1120.77 -138.501 1119.86 -149.613 1113.03C-169.112 1101.05 -179.937 1084.26 -191.058 1070.11C-207.349 1049.37 -221.885 1028.3 -236.213 1007.22C-250.541 986.131 -264.425 964.939 -278.783 943.845C-288.236 929.91 -295.923 914.021 -311.149 901.5Z" stroke="#1E293B" stroke-width="5"/>
<path fill-rule="evenodd" clip-rule="evenodd" d="M-300.418 868.489C-349.304 826.056 -388.249 778.954 -426.245 733.546C-474.903 675.432 -520.509 616.002 -550.925 554.771C-568.772 518.819 -588.477 476.4 -568.011 439.665C-560.708 426.56 -544.294 416.769 -529.808 405.536C-513.275 392.731 -498.126 379.433 -483.214 366.136C-452.521 338.763 -422.875 311.102 -394.277 283.151C-379.068 268.347 -358.701 252.05 -353.425 235.325C-349.225 222.028 -355.302 206.923 -357.071 193.567C-360.253 169.513 -363.534 145.465 -366.32 121.402C-369.532 93.6349 -372.497 65.7893 -371.983 37.9635C-371.696 22.4549 -376.43 -4.16936 -356.34 -15.1372C-338.809 -24.7063 -275.407 10.1326 -263.36 16.2592C-225.75 35.3926 -189.937 55.5159 -149.718 73.3245C-126.001 83.849 -97.1558 96.6637 -65.7213 101.101C-38.9313 104.879 -8.40601 97.5896 16.3582 93.2852C47.3776 87.9023 79.5335 83.5585 109.901 77.3038C136.958 71.7337 161.06 62.8688 185.656 55.0825C212.713 46.518 240.214 37.8452 269.731 31.4871C287.895 27.5915 318.311 21.1448 335.624 28.8868C355.586 37.8305 342.542 65.4003 339.696 76.7325C333.846 99.7221 325.149 122.534 317.362 145.366C304.437 183.288 293.132 219.442 295.84 258.059C299.377 308.347 307.698 358.586 312.303 408.865C314.022 427.432 317.481 446.294 315.613 464.876C314.536 475.529 308.014 483.64 293.3 489.836C273.22 498.297 262.103 517.785 250.58 531.338C232.625 552.471 215.924 573.87 199.006 595.209C161.85 642.055 126.038 689.803 77.982 734.23C62.7835 748.286 45.836 764.381 20.726 774.777C6.72323 780.579 -6.76564 779.116 -21.6479 782.657C-41.224 787.346 -50.0584 802.761 -56.462 811.975C-68.8342 829.759 -77.1251 848.272 -84.8923 866.642C-102.462 908.208 -114.014 949.873 -122.523 992.114C-124.499 1002.01 -131.347 1040.99 -164.353 1020.52C-200.827 997.901 -218.704 965.239 -239.258 938.61C-257.738 914.621 -274.932 890.612 -300.418 868.489Z" stroke="#64748B" stroke-width="5"/>
<path fill-rule="evenodd" clip-rule="evenodd" d="M-291.377 809.847C-334.385 769.961 -366.471 725.777 -397.165 682.819C-434.411 630.692 -467.612 577.258 -486.21 522.587C-497.882 488.243 -506.851 450.379 -487.453 416.266C-474.212 392.971 -438.417 374.951 -413.79 354.491C-389.164 334.03 -366.046 312.741 -346.777 290.817C-334.819 277.209 -322.772 262.571 -324.351 247.431C-328.179 210.617 -337.305 173.847 -341.736 136.993C-344.695 112.613 -347.132 88.1843 -346.402 63.7303C-345.968 48.984 -347.744 28.7256 -332.195 15.6704C-314.997 1.23957 -168.165 78.0772 -151.638 85.3395C-110.199 103.547 -55.2037 125.595 3.72867 122.075C60.0662 118.707 102.127 104.114 146.269 87.6074C171.38 78.2399 238.462 48.2001 271.12 59.3325C289.787 65.6925 283.324 86.6559 282.052 96.6149C279.545 116.242 274.158 135.761 269.482 155.285C262.703 183.752 252.235 213.003 249.167 241.593C247.036 261.502 249.887 281.528 249.946 301.471C250.025 330.066 249.591 358.662 249.078 387.257C248.644 411.267 249.078 435.48 244.46 459.406C241.619 474.281 235.235 485.571 217.199 496.24C201.512 505.523 192.326 519.53 182.351 531.363C165.884 550.906 150.62 570.706 135.11 590.442C102.63 631.762 70.8304 673.556 30.2398 713.106C11.7205 731.16 -14.2086 761.516 -59.1109 765.751C-75.3017 767.279 -82.297 768.403 -91.5024 776.292C-104.566 787.488 -110.456 800.898 -115.577 813.461C-127.515 842.746 -125.729 872.88 -137.529 902.116C-142.394 914.023 -152.892 929.568 -176.926 915.975C-205.036 900.114 -220.487 877.026 -237.852 858.025C-246.514 848.539 -254.625 838.768 -265.201 829.76C-273.351 822.843 -283.8 816.922 -291.377 809.847Z" stroke="#475569" stroke-width="5"/>
<path fill-rule="evenodd" clip-rule="evenodd" d="M-277.949 734.303C-312.881 697.453 -338.278 657.434 -361.174 618.133C-386.571 574.481 -407.608 529.775 -416.558 484.479C-422.759 453.201 -424.589 419.876 -405.61 389.52C-393.603 370.322 -368.354 357.307 -347.179 340.788C-315.175 315.855 -289.817 288.88 -295.989 258.927C-302.892 225.346 -308.071 191.656 -311.526 157.855C-313.613 137.466 -315.175 116.998 -313.722 96.5851C-312.812 83.6785 -311.279 67.0505 -299.559 55.8224C-283.864 40.7991 -164.432 97.23 -147.025 104.264C-103.855 121.709 -58.5589 134.498 -5.0737 141.97C38.571 148.064 72.8795 135.615 105.526 122.773C125.801 114.788 176.794 88.9898 203.121 97.0675C217.64 101.498 216.888 116.098 217.63 123.939C219.034 138.884 217.571 153.892 216.928 168.837C215.939 190.904 222.733 214.394 217.264 236.274C205.159 284.765 194.675 333.133 186.377 381.924C181.808 408.821 177.654 435.879 168.842 462.534C165.678 472.104 162.325 481.988 155.164 491.055C150.566 496.888 142.733 500.068 136.304 504.991C105.704 528.461 89.9595 559.098 70.3476 585.532C44.2775 620.673 18.6129 656.001 -12.1846 690.207C-28.3845 708.199 -46.9975 733.328 -80.0599 745.708C-90.0488 749.449 -98.0399 747.854 -107.643 750.207C-118.72 752.914 -122.023 761.14 -125.109 766.451C-132.121 778.506 -142.723 828.966 -183.856 805.712C-203.448 794.617 -216.018 780.48 -231.417 767.972C-236.995 763.443 -242.602 759.028 -250.129 755.252C-262.748 748.937 -269.948 742.715 -277.949 734.303Z" stroke="#334155" stroke-width="5"/>
<path fill-rule="evenodd" clip-rule="evenodd" d="M-262.826 653.81C-319.34 581.065 -357.843 495.81 -350.384 416.499C-347.894 390.125 -339.585 361.748 -311.15 338.885C-294.353 325.404 -275.393 314.632 -269.327 298.438C-264.95 286.748 -269.92 274.16 -271.718 262.401C-274.326 245.368 -276.658 228.326 -278.545 211.269C-280.847 190.124 -282.626 168.909 -281.677 147.723C-280.995 132.585 -281.766 111.681 -265.464 98.5306C-246.019 82.8302 -154.806 122.794 -138.553 128.417C-99.1604 142.046 -60.9933 151.6 -13.519 155.053C0.313243 156.069 14.4913 159.492 28.4323 159.048C42.6696 158.585 55.3459 154.21 66.5401 150.17C81.2122 144.887 116.01 126.557 133.903 131.806C143.783 134.706 145.028 145.592 147.123 151.235C151.075 161.82 153.199 172.559 156.341 183.208C161.696 201.276 179.135 219.216 178.641 237.348C177.337 286.107 147.024 335.57 130.376 383.352C120.446 411.759 111.436 440.358 97.9887 468.419C93.7304 477.298 89.3238 486.443 82.1014 494.883C77.0625 500.772 68.0814 504.555 62.4398 510.011C40.7726 530.93 27.6221 554.986 13.0389 577.449C-5.93105 606.61 -24.3279 635.87 -44.523 664.83C-57.1796 682.981 -68.3145 706.322 -91.7898 721.964C-108.932 733.387 -114.06 725.579 -130.026 719.552C-138.167 716.474 -146.19 717.184 -155.408 715.847C-168.569 713.938 -178.044 708.542 -186.561 703.481C-198.328 696.502 -208.02 687.204 -222.445 681.497C-227.524 679.484 -233.827 679.578 -238.254 677.95C-251.147 673.215 -257.51 660.652 -262.826 653.81Z" stroke="#1E293B" stroke-width="5"/>
<path fill-rule="evenodd" clip-rule="evenodd" d="M-242.691 576.467C-278.222 517.425 -298.454 451.732 -289.064 389.323C-285.793 367.609 -278.192 345.762 -261.499 325.535C-253.928 316.333 -245.488 309.425 -245.033 299.341C-243.985 275.943 -247.652 252.471 -248.532 229.078C-249.164 212.337 -249.392 195.513 -246.693 178.811C-244.895 167.644 -242.74 152.543 -229.012 143.394C-209.017 130.1 -141.048 154.099 -122.27 158.983C-91.1267 167.078 -56.5046 175.109 -20.4693 171.898C-9.44915 170.913 0.286135 169.17 11.5237 168.944C21.1799 168.727 30.0949 169.333 39.3261 167.624C50.7712 165.512 68.5319 156.117 79.0678 159.347C86.263 161.548 86.599 168.077 88.9019 172.42C92.6361 179.464 97.5354 186.341 103.549 192.982C109.914 199.974 119.748 205.927 125.006 213.169C133.526 224.927 134.327 238.089 134.287 250.447C134.129 299.759 114.629 349.696 94.239 397.758C83.6241 422.785 72.3074 447.951 56.2071 472.274C51.3148 479.66 46.4027 488.03 37.3691 494.525C31.7454 498.577 24.6984 501.325 20.4683 505.928C-15.6461 545.255 -29.0581 590.721 -55.1407 632.47C-61.9307 643.337 -96.2365 703.56 -128.506 672.072C-148.115 652.943 -157.03 632.731 -183.854 615.276C-192.008 609.958 -198.758 606.413 -211.202 604.335C-219.484 602.966 -215.284 606.26 -223.942 601.662C-234.349 596.083 -238.549 583.345 -242.691 576.467Z" stroke="#334155" stroke-width="5"/>
<path fill-rule="evenodd" clip-rule="evenodd" d="M-221.681 515.077C-250.683 445.953 -252.062 372.751 -226.352 302.536C-219.877 284.835 -221.425 266.414 -219.779 248.496C-218.202 231.087 -221.484 200.134 -194.65 187.489C-175.197 178.32 -133.857 188.269 -112.099 191.711C-84.3778 196.095 -55.7406 199.927 -28.8181 192.728C-13.0508 188.511 1.9576 182.735 17.577 178.212C25.0369 176.049 36.4681 171.596 43.5338 173.452C55.1917 176.523 60.0992 190.891 65.5981 197.863C83.1687 220.145 87.6525 243.741 87.5244 267.564C87.2977 311.567 75.2358 355.796 58.8773 398.959C51.3484 418.817 43.317 438.952 30.2302 458.104C22.8295 468.942 8.55026 476.936 0.0852279 487.284C-27.1921 520.607 -41.7669 556.408 -66.7087 590.304C-73.9321 600.114 -97.9771 636.76 -126.329 618.299C-153.773 600.425 -150.512 574.356 -176.33 555.771C-179.287 553.668 -182.824 551.066 -187.604 549.846C-190.462 549.126 -195.901 550.395 -197.527 549.846C-215.197 544.139 -218.005 523.851 -221.681 515.077Z" stroke="#475569" stroke-width="5"/>
<path fill-rule="evenodd" clip-rule="evenodd" d="M-202.513 470.293C-212.263 434.83 -214.68 398.588 -215.295 362.529C-215.632 342.818 -218.148 321.162 -208.141 301.876C-201.978 290.029 -196.588 278.587 -192.704 266.374C-188.523 253.234 -185.481 232.077 -162.821 224.075C-145.888 218.097 -111.081 222.194 -90.4921 222.412C-67.9115 222.644 -51.1667 220.333 -35.0066 212.381C-24.8309 207.381 12.1065 184.442 22.7578 187.092C32.9037 189.615 34.4593 205.599 37.0948 212.509C45.4573 234.353 48.3702 256.487 47.9145 278.705C47.2209 313.116 40.1861 347.655 28.0982 381.528C23.0748 395.533 17.873 410.006 7.83612 423.383C1.06887 432.392 -10.9299 439.905 -17.925 448.855C-37.9889 474.484 -51.6126 501.584 -72.0432 527.302C-78.6122 535.556 -96.1001 562.449 -123.05 556.002C-145.552 550.626 -152.398 532.342 -167.478 523.358C-193.2 508.075 -197.163 489.781 -202.513 470.293Z" stroke="#475569" stroke-width="5"/>
<path fill-rule="evenodd" clip-rule="evenodd" d="M-189.582 447.952C-196.036 419.821 -198.859 391.037 -198.997 362.493C-199.086 344.071 -199.589 324.637 -191.289 306.56C-187.124 297.48 -177.383 289.589 -170.435 280.995C-163.29 272.146 -155.315 259.934 -138.932 256.109C-123.536 252.515 -101.074 253.857 -82.5096 250.701C-66.0377 247.894 -55.8624 242.019 -44.7298 235.692C-37.6141 231.66 -6.81192 210.958 -0.011959 213.352C7.2716 215.918 6.67945 228.352 7.68612 234.822C10.5081 252.647 11.4075 270.535 10.3804 288.409C8.88029 312.804 4.6957 337.385 -4.77884 361.357C-11.49 378.362 -27.4783 391.189 -39.203 407.044C-54.4314 427.584 -66.4719 448.862 -83.1313 469.206C-91.4314 479.343 -102.11 494.348 -123.536 499.539C-131.748 501.535 -152.631 503.472 -160.842 501.25C-170.712 498.58 -174.896 488.645 -177.433 483.954C-183.759 472.205 -186.838 459.909 -189.582 447.952Z" stroke="#1E293B" stroke-width="5"/>
</g>
</svg>
