<svg width="1440" height="1168" viewBox="0 0 1440 1168" fill="none" xmlns="http://www.w3.org/2000/svg">
<rect width="1557.33" height="1168" fill="#020617"/>
<mask id="mask0_50_799" style="mask-type:alpha" maskUnits="userSpaceOnUse" x="0" y="0" width="1558" height="1168">
<rect width="1557.33" height="1168" fill="#020617"/>
</mask>
<g mask="url(#mask0_50_799)">
<path d="M377.897 973.876C549.786 1131.29 794.65 1096.74 969.61 912.536C1144.57 728.328 1109.49 440.117 906.585 321C703.683 201.883 479.947 206.117 314.872 382.34C149.797 558.562 206.008 816.461 377.897 973.876Z" fill="#0F172A"/>
<path d="M1361 146.015C1453.75 196.853 1568.55 201.37 1636.54 117.4C1704.54 33.4305 1691.42 -89.9004 1607.25 -158.067C1523.07 -226.234 1406 -193.922 1331.71 -129.453C1257.42 -64.9836 1268.26 95.1766 1361 146.015Z" fill="#0F172A"/>
<path d="M1703.66 717.399C1819.05 810.841 1819.14 964.188 1743.44 1095.48C1667.74 1226.78 1539.25 1347.63 1449.61 1458.33C1359.98 1569.02 1194.3 1597.45 1071.52 1498.03C948.738 1398.6 929.603 1220.87 1031.74 1119.94C1133.89 1019.02 1216.3 866.83 1325.57 757.1C1434.84 647.37 1588.27 623.957 1703.66 717.399Z" fill="#0F172A"/>
<path d="M158.6 384.172C250.612 458.682 375.555 441.823 446.766 353.885C517.977 265.946 506.487 120.602 416.479 65.7183C326.47 10.8349 193.906 -10.0558 128.312 96.0058C62.7191 202.067 66.5883 309.662 158.6 384.172Z" fill="#334155"/>
<path d="M440.939 1056.28C470.122 1079.91 509.759 1074.55 532.356 1046.65C554.953 1018.74 551.319 972.631 522.77 955.225C494.22 937.819 452.168 931.201 431.352 964.855C410.536 998.51 411.756 1032.65 440.939 1056.28Z" fill="#334155"/>
<path d="M48.1129 110.27C67.2781 125.79 93.3084 122.271 108.148 103.946C122.988 85.6202 120.601 55.3381 101.852 43.9075C83.1036 32.4768 55.4874 28.1307 41.8171 50.2319C28.1469 72.3332 28.9477 94.7505 48.1129 110.27Z" fill="#334155"/>
<path d="M571.421 969.377C560.355 973.518 556.281 985.372 560.574 997.514C564.868 1009.66 578.693 1014.7 588.742 1008.28C598.792 1001.86 603.749 991.655 599.589 980.144C595.429 968.632 582.487 965.236 571.421 969.377Z" fill="#334155"/>
<path d="M1214.18 200.028C1262.53 239.18 1328.2 230.304 1365.64 184.073C1403.07 137.843 1397.05 61.4494 1349.75 32.6131C1302.46 3.77668 1232.79 -7.18746 1198.3 48.5679C1163.82 104.323 1165.84 160.876 1214.18 200.028Z" fill="#475569"/>
<path d="M497.793 386.697C516.958 402.217 542.988 398.698 557.828 380.372C572.668 362.047 570.281 331.765 551.532 320.334C532.784 308.904 505.167 304.557 491.497 326.659C477.827 348.76 478.628 371.177 497.793 386.697Z" fill="#475569"/>
<path d="M583.483 390.878C592.195 397.932 604.027 396.333 610.772 388.003C617.517 379.673 616.433 365.909 607.91 360.713C599.388 355.517 586.835 353.542 580.622 363.588C574.408 373.634 574.772 383.823 583.483 390.878Z" fill="#475569"/>
<path d="M901.61 1226.3C933.285 1251.95 991.064 1219.86 1026.6 1185.08C1062.13 1150.3 1057.13 1088.23 1013.11 1059.08C969.086 1029.93 918.141 1033.7 887.058 1072.08C855.975 1110.47 869.935 1200.65 901.61 1226.3Z" fill="#475569"/>
<path d="M338.489 804.222C408.589 868.419 508.451 854.33 579.804 779.205C651.158 704.08 636.851 586.54 554.103 537.961C471.355 489.383 380.109 491.11 312.787 562.978C245.465 634.847 268.389 740.024 338.489 804.222Z" fill="#334155"/>
<path d="M1383 762.078C1409.54 786.38 1447.34 781.046 1474.35 752.609C1501.36 724.171 1495.95 679.678 1464.62 661.289C1433.3 642.9 1398.76 643.553 1373.27 670.758C1347.79 697.963 1356.47 737.777 1383 762.078Z" fill="#334155"/>
<path d="M559.837 849.779C568.55 857.758 580.963 856.007 589.832 846.669C598.701 837.331 596.922 822.722 586.637 816.683C576.352 810.645 565.01 810.86 556.642 819.793C548.275 828.726 551.124 841.799 559.837 849.779Z" fill="#334155"/>
<path d="M1450.44 819.605C1459.15 827.585 1471.56 825.834 1480.43 816.496C1489.3 807.158 1487.52 792.548 1477.24 786.51C1466.95 780.472 1455.61 780.687 1447.24 789.62C1438.87 798.553 1441.72 811.626 1450.44 819.605Z" fill="#334155"/>
<path d="M592.846 796.703C597.202 800.692 603.408 799.817 607.843 795.148C612.277 790.479 611.388 783.174 606.246 780.155C601.103 777.136 595.432 777.243 591.248 781.71C587.064 786.176 588.489 792.713 592.846 796.703Z" fill="#334155"/>
<path d="M851.564 545.025C878.1 569.326 915.902 563.993 942.912 535.555C969.922 507.118 964.506 462.624 933.182 444.235C901.859 425.846 867.319 426.5 841.835 453.705C816.351 480.91 825.028 520.724 851.564 545.025Z" fill="#64748B"/>
<path d="M123.784 482.832C132.497 490.812 144.909 489.06 153.778 479.723C162.647 470.385 160.869 455.775 150.584 449.737C140.298 443.699 128.957 443.913 120.589 452.846C112.221 461.779 115.07 474.852 123.784 482.832Z" fill="#64748B"/>
<path d="M1346.29 972.419C1355 980.398 1367.42 978.647 1376.29 969.309C1385.15 959.971 1383.38 945.362 1373.09 939.323C1362.8 933.285 1351.46 933.5 1343.1 942.433C1334.73 951.366 1337.58 964.439 1346.29 972.419Z" fill="#64748B"/>
<path d="M836.52 576.236C830.527 586.418 834.82 598.195 845.798 604.928C856.775 611.662 870.696 606.885 874.464 595.569C878.232 584.253 875.664 573.204 865.186 566.876C854.709 560.549 842.514 566.054 836.52 576.236Z" fill="#64748B"/>
<path d="M-61.4484 1317.22C42.3705 1401.29 208.089 1381.85 314.025 1278.1C419.961 1174.36 405.256 989.429 274.223 902.703C143.189 815.978 -8.55771 827.355 -101.251 941.821C-193.944 1056.29 -165.267 1233.15 -61.4484 1317.22Z" fill="#1E293B"/>
<path d="M1451.18 360.61C1535.36 428.777 1535.41 540.657 1480.17 636.456C1424.94 732.254 1331.19 820.438 1265.79 901.203C1200.38 981.969 1079.51 1002.73 989.941 930.196C900.37 857.663 886.422 727.993 960.948 654.35C1035.47 580.708 1095.61 469.669 1175.34 389.603C1255.06 309.537 1367 292.443 1451.18 360.61Z" fill="#1E293B"/>
<path d="M1028.45 339.383C1064.29 372.208 1115.35 365.004 1151.84 326.592C1188.32 288.18 1181.01 228.081 1138.69 203.242C1096.38 178.403 1049.73 179.286 1015.31 216.033C980.885 252.779 992.607 306.558 1028.45 339.383Z" fill="#475569"/>
<path d="M-214.965 990.192C-116.742 1080.14 23.18 1060.4 123.158 955.14C223.135 849.879 203.087 685.187 87.1434 617.12C-28.8007 549.053 -156.65 551.472 -250.979 652.171C-345.307 752.869 -313.187 900.24 -214.965 990.192Z" fill="#475569"/>
<path d="M1469.88 1364.93C1568.1 1454.88 1708.02 1435.14 1808 1329.87C1907.98 1224.61 1887.93 1059.92 1771.98 991.853C1656.04 923.786 1528.19 926.206 1433.86 1026.9C1339.53 1127.6 1371.65 1274.97 1469.88 1364.93Z" fill="#475569"/>
<path d="M1399.23 243.798C1414.35 252.082 1433.08 252.801 1444.19 239.086C1455.29 225.37 1453.17 205.243 1439.45 194.13C1425.72 183.017 1406.62 188.308 1394.49 198.842C1382.36 209.376 1384.1 235.515 1399.23 243.798Z" fill="#0F172A"/>
<path d="M1133.63 74.1259C1142.8 79.1462 1154.15 79.5824 1160.88 71.2699C1167.61 62.9573 1166.33 50.7588 1158.01 44.0236C1149.69 37.2885 1138.11 40.4956 1130.76 46.8797C1123.41 53.2638 1124.47 69.1057 1133.63 74.1259Z" fill="#0F172A"/>
<path d="M1046.26 -245.589C1130.44 -177.422 1143.42 -53.9217 1075.25 30.257C1007.09 114.436 917.095 205.46 860.865 295.005C804.636 384.549 660.917 402.336 585.02 323.997C509.123 245.658 480.01 142.025 556.027 48.1518C632.044 -45.7214 695.72 -124.354 770.416 -216.596C845.112 -308.838 962.083 -313.755 1046.26 -245.589Z" fill="#1E293B"/>
</g>
</svg>
